<?xml version="1.0" encoding="utf-8"?>
<!-- Generator: Adobe Illustrator 26.0.1, SVG Export Plug-In . SVG Version: 6.00 Build 0)  -->
<svg version="1.1" id="Layer_1" xmlns="http://www.w3.org/2000/svg" xmlns:xlink="http://www.w3.org/1999/xlink" x="0px" y="0px"
	 viewBox="0 0 4000 3000" style="enable-background:new 0 0 4000 3000;" xml:space="preserve">
<style type="text/css">
	.st0{fill:url(#SVGID_1_);}
</style>
<linearGradient id="SVGID_1_" gradientUnits="userSpaceOnUse" x1="204.1808" y1="1500" x2="3795.8193" y2="1500">
	<stop  offset="0" style="stop-color:#BA8D61"/>
	<stop  offset="0.2615" style="stop-color:#B4895E"/>
	<stop  offset="0.6011" style="stop-color:#A47D56"/>
	<stop  offset="0.9824" style="stop-color:#896A49"/>
	<stop  offset="1" style="stop-color:#886948"/>
</linearGradient>
<path class="st0" d="M3795.8,1338.9v-140.1c0-25.9,3.3-85.2-36.3-121.8c-39.6-36.5-114.9-75.5-114.9-75.5
	c86,6.2,151.2-28.7,151.2-52.7V848.3c0-11.6-18.7-17.8-18.7-17.8s18.7-6.8,18.7-44.4c0-37.6,0-342,0-342s-39.2,12.2-54.1,43.9
	c-14.6,31.2,6.9,66.8,7.6,67.9c-1.1-1.2-43.6-44.9-115.8-30.6c-73.2,14.6-95.4,66.2-95.4,66.2c-28.3-32.8-75.5-7-75.5-7
	c6.3-26.9-9.1-46.8-24.4-47.3c-15.3-0.5-20.1,13.7-20.1,13.7c16.8,4.7,22.6,35-6.3,40c-29,5-58-21.6-85.4-45.9
	c-27.4-24.3-76.4-52.7-123.9-52.7s-100.1,36.6-100.1,36.6c-92.6-91-250.1-96.7-250.1-96.7c-2.9-46.7-14.7-80.1-58-108.1
	c-45.7-29.6-102.2-26.5-130.6-8.4c-28.5,18.1-35.2,48.3-35.2,48.3c-41.5-35.9-84.7-53.3-172.8-22.4
	c-88.1,30.9-176.5,130.7-176.5,130.7c12.3-79.1-20.7-141.5-51.8-172.7c-29.5-29.6-79.2-55.7-136.8-48.8
	c-57.6,6.9-90.5,38.7-90.5,38.7s-32.9-31.8-90.5-38.7c-57.6-6.9-107.3,19.3-136.8,48.8c-31.2,31.2-64.1,93.6-51.8,172.7
	c0,0-88.4-99.9-176.5-130.7c-88.1-30.8-131.3-13.5-172.8,22.4c0,0-6.7-30.2-35.2-48.3c-28.5-18.1-84.9-21.2-130.6,8.4
	c-43.3,28-55.1,61.4-58,108.1c0,0-157.5,5.8-250.1,96.7c0,0-52.6-36.6-100.1-36.6c-47.4,0-96.5,28.5-123.9,52.7
	c-27.4,24.3-56.4,50.9-85.4,45.9c-29-5-23.2-35.3-6.3-40c0,0-4.8-14.2-20.1-13.7c-15.3,0.5-30.7,20.4-24.4,47.3
	c0,0-47.2-25.9-75.5,7c0,0-22.2-51.6-95.4-66.2c-72.2-14.4-114.7,29.4-115.8,30.6c0.7-1.1,22.2-36.7,7.6-67.9
	c-14.9-31.7-54.1-43.9-54.1-43.9s0,304.3,0,342c0,37.6,18.7,44.4,18.7,44.4s-18.7,6.2-18.7,17.8V949c0,24,65.2,58.8,151.2,52.7
	c0,0-75.3,38.9-114.9,75.5c-39.6,36.5-36.2,95.9-36.2,121.8v140.1c0,21.8,18.4,40.3,30.7,49.2c0,0-30.7,62.6-30.7,84.4v194
	c0,22.9,67.6,73.8,139.8,101.2c0,0-77.9,22.3-110.7,46.4c-25.3,18.6-29.1,35.8-29.1,40.8c0,0,0,97.5,0,117.5
	c0,19.9,9.3,30.2,9.3,30.2s-9.3,16.2-9.3,30.2v108.4c0,14,10.7,18.4,10.7,18.4s-10.7,25.4-10.7,43c0,17.6,0,339.7,0,339.7
	s50.7-15.9,40.2-106.3c0,0,43.5,43.8,103.9,36.3c70.1-8.7,89.1-79.4,89.1-79.4s11.3,18.5,35.3,25.6c18.7,5.5,37.8,4.3,48.1-4.6
	c0,0-2.6,29,24.2,41c26.8,12,51.5,1.4,47.8-18.5c0,0-10.4,9.7-25.7,0.7c-15.3-9-17.9-24.8,4.6-30.7c18.4-4.8,41.2,1.1,64.8,19.8
	c10.5,8.4,58,59.1,125.7,72.1c66.1,12.7,116.2-16.6,129-28.7c0,0,52,47.9,116.3,72.6c65.4,25.2,122.5,25.2,122.5,25.2
	s3.2,75,68.5,111.4c63.7,35.4,143.5,23,167.1-35.4c0,0,44.8,39.4,122.6,32.3c77.8-7.1,147.8-64.5,177.9-95
	c30.2-30.6,43.2-45.7,43.2-45.7s-14.9,100.2,48.8,163.6c65.3,65.1,192.4,70.5,242.1,5c49.7,65.5,176.8,60.1,242.1-5
	c63.7-63.4,48.8-163.6,48.8-163.6s13,15.1,43.2,45.7c30.2,30.6,100.2,88,177.9,95c77.8,7.1,122.6-32.3,122.6-32.3
	c23.6,58.4,103.5,70.9,167.1,35.4c65.4-36.4,68.5-111.4,68.5-111.4s57.1,0,122.5-25.2c64.3-24.7,116.3-72.6,116.3-72.6
	c12.7,12.2,62.9,41.4,129,28.7c67.7-13,115.1-63.7,125.7-72.1c23.5-18.7,46.4-24.6,64.8-19.8c22.4,5.8,19.9,21.7,4.6,30.7
	c-15.3,9-25.7-0.7-25.7-0.7c-3.7,19.9,21,30.5,47.8,18.5c26.8-12,24.2-41,24.2-41c10.3,8.9,29.4,10.2,48.1,4.6
	c24-7.1,35.3-25.6,35.3-25.6s19,70.7,89.1,79.4c60.4,7.5,103.9-36.3,103.9-36.3c-10.6,90.4,40.2,106.3,40.2,106.3s0-322.1,0-339.7
	c0-17.6-10.7-43-10.7-43s10.7-4.4,10.7-18.4v-108.4c0-14-9.3-30.2-9.3-30.2s9.3-10.3,9.3-30.2c0-19.9,0-117.5,0-117.5
	c0-5-3.8-22.2-29.1-40.8c-32.8-24.1-110.7-46.4-110.7-46.4c72.1-27.4,139.8-78.3,139.8-101.2v-194c0-21.8-30.7-84.4-30.7-84.4
	C3777.4,1379.2,3795.8,1360.8,3795.8,1338.9z M3723.8,1337.5c-0.8,1.6-1.6,3.1-2.5,4.6c-14.2-15.9-35.9-37.4-64.5-59.6
	c14.4-0.4,29.6-5.3,42.8-16.2c32-26.4,33.8-63.6,33.8-63.6S3757.8,1270.2,3723.8,1337.5z M3652.7,1520.6
	c-20.7-29.4-71.4-41.8-114.5-26.1c-8.8,5.8-17.9,10.8-27.3,15c-34,26.8-42.5,75-34.8,114.6c-9.6-0.4-23.4,1.5-37,12.4
	c-9.7,7.8-15.4,20.2-16.3,34.1c-5.7-11.6-18.4-20.9-38.8-23.5c-11-1.4-24.9,0.6-38.3,3.7c35.4-34.3,63.3-77.6,76-124.8
	c1.1,0.1,2.2,0.1,3.4,0.2c26.1,1.5,56.8-3.7,85.9-16.7c2.8-2.2,5.8-4.3,9-6.2c5.8-3.5,12-6.4,18.2-8.7c20.7-13.7,39.4-32,53.5-55.5
	c2.4,0.9,5,1.7,7.7,2.5c45,12.3,89.8-4.2,120.3-21.6c3.8,11.2,6.3,21.9,7.7,31.8c15.3,107.3-61.3,128.4-61.3,128.4
	c-0.2,0.2-0.5,0.4-0.7,0.6C3669.5,1561.8,3666,1539.5,3652.7,1520.6z M3531.3,1993.9c9,15.6,36.3,19.9,36.3,19.9
	s-55.5,20.4-167.4,79.8c-16.8,19.3-40.6,31.8-65.9,36.2c-50.7,28.9-102.1,60.3-154.9,93.5c-8.7-22.6-21.3-41.6-37.1-56.7
	c9.6,3.8,21.5,5.3,35.2,3.3c35.7-5.1,71.1-34.2,55.5-90c-12-43-61.3-70.1-112.6-81.7c8.9-4.7,18-9.4,27.2-13.9
	c82.1-40.4,159-36,193.3-14.1c25.5,16.2,50.2,62.4,25.4,105c-27.3,46.9-95.3,32.2-101.5,4.6c0,0,11.5,0.9,16.1-10.8
	c4.7-12.1-9.4-24.9-25.6-21.2c-16.1,3.7-27.1,26.1-9.8,55.2c10.3,17.3,32.6,24.7,51.4,27.5c12.4,1.8,25,1.6,37.3-0.6
	c18-10.3,35.8-20.2,53.6-29.7c4.2-2.2,8.2-4.4,12.2-6.5c4.7-5.3,8.8-11.2,12.3-17.5c14.8-27,16.6-60.2,4.9-88.6
	c-1.5-3.7-3.3-7.3-5.2-10.9c-19.4-35.9-60.4-51.6-99.3-54.4c-35.9-2.6-72.4,4.5-106,17c-41.8,15.7-79.4,33.9-114.4,54.2
	c-5.5-0.7-10.9-1.1-16.2-1.4c-29.1-1.6-59.9,1.4-88.3,10.6c10.5-6,21.1-12.1,31.9-18.3c158.7-90,310.6-114.2,430.2-99
	c128.5,16.2,133.6,86.8,84.9,84.1C3535,1969.3,3522.3,1978.3,3531.3,1993.9z M2981.6,2294.3c-51.9-15.1-92,2.9-109.2,25.8
	c-15.5,20.6-16.6,60,15.7,77.6c-35.6,16-70.8,28.3-107.3,37.4c-30.7-18.1-69.7-30.1-121.3-29c-4.8-19.9-4.5-36.9-3.1-49.1
	c3.4-29.7,29.9-41.1,43.7-40.6c19.1,0.7,28.4,6.1,36.9,16.1c0,0,17.1-31-9.7-41.5c-26.8-10.6-92.3-2.7-98.6,73.1
	c-1.2,14.4-0.2,29.2,2.9,43.8c-0.5,0-1,0.1-1.5,0.1c-43.4,4.7-75.3,28.6-114.5,44.1c-113.9-8.9-193.1-33.5-195.5-34.2
	c149.8,20.5,250.1-36.9,294.1-75.6c44-38.7,83.9-102.4,131.3-125.6c47.4-23.2,99.1-14.3,119.5,8.7c18.6,21,8.5,48.6-8.1,50.3
	c-17.6,1.8-19.8-12.3-19.8-12.3c-22.3,12-12.9,40,8.9,45.7c22.3,5.8,65-10.6,58.6-66.7c-5.2-44.5-43.3-61.5-81.2-64.3
	c26.7-12,68.1-32.5,107.2-59.9c51.6-36.2,106.2-73.9,167.6-108.1c1.7,0.4,3.4,0.8,5.1,1.2c20.7,5.3,41.1,13.3,58.9,25.3
	c20.3,13.8,37.4,33.5,43.2,57.8c4.6,19.4-1.8,44.6-22.1,52.3c-3.1,1.2-6.3,1.8-9.6,2.1c-10.3,0.7-26.2-2.5-31.6-12.4
	c-2.2-4-2-9-0.1-13.1c0,0,10.4,4,17.1-5.5c6.7-9.5-3.5-24.9-20.2-22.2c-16.8,2.6-27.4,15.9-24,38.7c0.8,5.5,2.8,10.6,5.7,15.3
	c-12.1-7.9-25.4-14.2-39.7-18.7c-65.3-20.7-142.1,7-164.5,51.8c-22.4,44.8-7.3,90,25.5,99.9c32.8,9.9,61.3-21.4,55.5-44.1
	c-5.8-22.7-40.2-16.9-51.3-2.9c0,0-13-47.7,36.3-75.8c46.9-26.7,142.2-5.8,168.3,81.5c-39.6,25-80.1,50.9-121.6,77.1
	C3016.1,2308.4,3000.4,2299.7,2981.6,2294.3z M3007.9,2331.9c-2.2,1.4-4.4,2.8-6.6,4.1c-25.6,16.1-50.2,30.3-74.4,42.9l-4.7-8.6
	c0,0-5.2,11.8-16.2,8.6c-10.9-3.2-19.2-20.2-10.3-42.3c8.9-22.1,33.2-33.3,66.2-28.3C2974.5,2310.3,2992.3,2317.6,3007.9,2331.9z
	 M2793,2464.7c4.1,3.2,8,6.7,11.8,10.3c24.2,22.7,37.1,48.3,41.4,73.3c-28.5,0.8-75.9-5-123-45.8c-7.9-6.8-14.9-13.7-21.1-20.5
	C2732.1,2477.9,2762.5,2472.2,2793,2464.7z M2679,2451.9c-7.2-11.7-12.4-23-15.9-33.7c28.6,1.9,61.3,8.7,91.3,22.8
	C2730.1,2446,2705.1,2449.6,2679,2451.9z M2648.5,2454.1c-16.6,0.9-33.8,1.3-51.6,1.3c-23.4,0-45.9-0.8-67.3-2.2
	c18.7-8.8,46.3-21.2,70-29.2c8.8-3,20.8-5.1,34.7-5.9C2637.5,2430.3,2642.3,2442.4,2648.5,2454.1z M2330.5,2328.5
	c0,0-15.8,12.3-32.4,13.5c0,0,0.1-16.8-8.8-24.8c0,0-68.2,47.3-151.4,24.8c0,0,68.7-11.6,84.7-73.2c0,0,27.5,26.3,85.6,39
	c5.9,1.3,11.6,2.4,17.2,3.2c54.3,51.7,140.6,71.2,212.7,50.6c5.7-1.6,11.1-3.4,16.3-5.4c-19.8,11.7-42,22.1-67,29.9
	c-103.6,32.5-197.5,6.9-197.5,6.9S2351.2,2369.3,2330.5,2328.5z M2037.7,2004.8c0-11.9,4.7-30.3,54-85.6
	c-1.7,47.9,8.1,115.5,62.2,171.8c-9.1-4.3-20-5.2-28.2-2.8c0,0,4.1-11.6-3.6-20.9c-7.7-9.2-36.2-25.2-104,45.7
	c1-1.3,33.3-42.5,34.7-60C2054.9,2023.9,2037.7,2018.5,2037.7,2004.8z M2195.9,1893.6c18.5,10.5,34.8,0,42.4-6.5
	c3.4,22.4,11.1,46.7,26.5,68.8c4.9,7.1,11.2,13.9,18.3,20.3c-33.9,8.3-134.5,23.6-144.4-85.8c0.3-7.8,1-15.1,1.8-21.8
	c11.4-10.6,24.2-21.9,38-33.7C2175.4,1855,2176.9,1882.8,2195.9,1893.6z M2235.9,1858.2c-10.1,20.8-27.4,12.1-26.4-10.1
	c1.1-23.1,30.4-36.7,30.4-36.7S2235.4,1830.9,2235.9,1858.2z M2341.4,1761.1c17.7,1.2,30.4-17,45.4-33s37.1-29.9,61.7-38.3
	c0,0-56.5-8.1-128,25.7c9.4-8.2,18.9-16.6,28.3-25.1c27.3-18.7,64.5-40.4,101.5-51.1c70.6-20.3,234.3-9.6,293.2,121.8
	c-16.6-5.2-31.3-4.2-38.5-3.2c-0.2-0.2-0.3-0.5-0.5-0.7c-56.6-73.4-137.6-91.4-196-80.9c-58.4,10.5-75.1,43.5-75.1,69.9
	c0,18.2,6.9,30.1,16.1,36.6c-21.5-2.9-44.7,4-53.9,25.4c-5.7,13.3,1.4,33,21.3,31.9c19.9-1.1,28.5-22.9,28.5-22.9
	c0.3-0.7,13.8,6.6,14.6,7.2c7.9,5.1,14.8,11.6,20,19.4c18.6,27.5,15,67.4-2.5,94.5c-11,17-27.7,29.5-46.1,37.5
	c-31.5,13.8-71.9,19.1-104.3,5.2c-1.3-0.5-4-2.7-5.4-2.7h0c-1.8-1.7-3.6-3.5-5.4-5.3c11.9-10.5,47.1-46.7,41.1-100.3
	c-5.9-52.9-43.4-73.3-76-80c9-19.7,23.1-38,43.3-53.3C2324.6,1739.3,2323.7,1759.9,2341.4,1761.1z M2332.3,1611.4
	c-12.9-4.8-17.7,12.5-11.2,19.9c0,0-26.3,2.4-29.1-20.9c-2.3-19.3,9-54.3,37.1-82.8c-7.5,22.3,3.4,41.2,3.4,41.2
	c6.7-28.6,51-25.8,49.2-48.4c-1.3-16.1-16.2-16.1-24.9-14.7c38.9-24.3,94.3-38.7,126.9-43.9c-8.3,14.6-18.3,29.6-29.7,44.7
	c-11.4,15.7-26.3,32.3-26.3,32.3c-25.5,29.4-55.1,58.8-85.4,86.7C2342,1619.4,2338.7,1613.8,2332.3,1611.4z M2425.9,1319.2
	c-0.4,36.3,28.3,56.4,28.3,56.4c-9.4-42.7,44-65.9,34.5-92c-4.1-11.4-20-13.6-31.6-12.1c13-13.7,27.5-24.6,40.7-31.7
	c18-9.7,38.3-14.2,52.7-16.3c-0.7,15.2-2.2,30.5-4.3,45.7v0.1c-1.9,15-11.5,58.8-11.5,58.8c-5.5,22-12.3,43.5-20,64.3
	c-6.4-14.3-20-24.6-37.5-25.2c-20.8-0.7-21.3,28.8-5.7,29.9c15.6,1.2,13.8-12.6,13.8-12.6s26.4,9.9,18.6,34.9c-0.8,2-1.7,4-2.5,5.9
	c-10.4,18.4-36.5,13.7-47.2,5.2c-21.5-17-40.3-40.3-34.6-86.6C2420.6,1335.4,2422.8,1327.2,2425.9,1319.2z M2434.4,972.2
	c-12.2-0.5-19.1,6-22.7,11.1c-11.3-20.5-12.7-40.8-11.9-54.3c32.1,14.8,62.1,36.6,86.6,67.7c14.3,18.1,25.9,37.6,35.2,57.9
	c-16.7-4.4-46.5-14-72.4-31.8c27.4,6.4,49.3-2.8,49.3-2.8C2456.7,1004.6,2454.3,973,2434.4,972.2z M2018,889.3
	c0,0-1.3-10.3,4.3-23.1c0,0,7.9,28.3,34.9,44.9c0,0-16.9,9-20.5,23.1C2036.7,934.2,2040.9,905.5,2018,889.3z M2060.6,747.5H2048
	c0,0-18.6-47.1,27.4-64.7C2074.6,683.3,2039.4,705.2,2060.6,747.5z M2010.7,691.2c10.7-83,74.4-108.4,120.9-129.5
	c45.8-20.8,72.4-37,73.3-37.5c-32.8,47.8-70.7,83.2-126.2,110.8C2023.3,662.5,2010.7,691.2,2010.7,691.2z M2042.1,851.5
	c-15.4-13.2-17-45.8-17-45.8s3.7,13.3,22.7,27c19.1,13.7,47.4,12.1,47.4,12.1C2079.4,875.3,2057.6,864.7,2042.1,851.5z
	 M2032.3,772.8c17.7,6.7,38.9-0.1,38.9-0.1c-5.2-3.1-7.2-9.2-7.3-9.6c18.3,16,41.8,3.7,44.6-11c2.6-13.6-8.7-19.4-16.2-17.1
	c-7.4,2.4-10.3,11.4-10.3,11.4c-6.6-1.1-16.4-18.4-12.6-34.1c3.9-15.6,20.9-26.8,39.3-29.2c18.4-2.5,61.5,4.8,71.7,49.9
	c10.2,45.1-24.8,85.5-76.6,85.5C2052.1,818.6,2032.3,772.8,2032.3,772.8z M2136.3,663.8c76.8-18.7,146.5,13.1,146.5,13.1
	c-0.8-13.4-6.2-22.9-6.2-22.9c24.9-3.2,41.5,12,41.5,12c4.8-42.9-39.4-63-39.4-63c135.7-24.7,238.8,23.8,238.8,23.8
	c-150.2-3.8-212.1,64.4-212.1,64.4c-61.5,10.5-93,50.6-93,50.6C2206.6,672.1,2136.3,663.8,2136.3,663.8z M2689,547.8
	c16.2,2,32.3,4.9,48.4,8.7c-24.2,11.1-56.7,21.7-93.6,22.2c3.5-13,8.7-24.8,14.8-34C2668.7,545.5,2678.9,546.6,2689,547.8z
	 M2683.8,514.5c0,0,47.7-67,149.4-65.2c0,0-4,41.9-51.7,81.4C2781.5,530.7,2738.7,520.9,2683.8,514.5z M2744.7,569.6
	c5.8-2.1,11.2-4.5,16.4-7c38.3,10.7,76.5,25.8,115,43.9c-47.8,7.1-56.7,52.1-28.1,79.1c-7.4-0.8-15.1,0.3-22.4,3
	c-19.7,7.2-25.6,31-25.6,33.9c0,2.9,37.3-14.2,51.1,6.2c11.2,16.5,4.9,55.1-42.6,59.9c-57.2,5.7-118.6-20.9-152.3-76.3
	c0,0,46.1,4.9,50.5-29.7c0,0-45.2,6.2-60.7-31c-8.1-19.3-8.5-42.1-4.4-62.9C2672.5,589,2706.8,583.5,2744.7,569.6z M3000.6,929.7
	c32.3,0,42-25.1,33.2-46.4c-1.9-4.7-6-9.4-11.7-13.6c46.2-2.8,92.8-23.8,122-65.8c-11.9,38.6-2.7,78.1,35.9,98.7
	c42,22.3,93.4-8.8,90.7-48.8c-0.7-9.9-3.7-17.7-8.2-23.4c9.3,5.2,18.6,10.3,27.9,15.4c22.7,12.3,43.2,23.3,61.7,33.2
	c-2.9,3.8-7.1,8.6-13.3,14.9c-10.8,10.8-24.6,12.5-26.1,16.7c-1.5,4.2-0.7,22.1-33.1,64.6c-23.8,31.1-93.4,77.7-168.8,76.2
	c-2.8-0.1-5.6-0.2-8.3-0.3h0c-17.8-7.1-25.3-17.9-25.3-17.9s2.6,0.6,23.4-5.7c20.8-6.3,35.7-21.4,35.7-21.4s-9.7,2.9-37.2,0
	c-27.5-2.8-37.3-16-54.2-29.1c-16.8-13.1-36.5-17.7-50.2-10.6c-12.9,6.7-15.7,4-20.3,7.3c-4.2,3,8.7,19.8,0.4,29.7
	c-12.3-10.1-21.8-20.9-27.3-31.8c-20-38.8-8.7-83.6,14.6-95c23.3-11.4,47.9-1.1,39.6,18.1c-6.1,14.1-33.3,14.5-33.3,14.5
	S2971.1,929.7,3000.6,929.7z M3409.4,909.2c106.4,55.4,123.2,58.4,162.3,70.9c0,0-115.8-8-207.6,25c-17.8,6.4-34.8,14-51.7,22.3
	C3352.4,1002.3,3391.9,960.9,3409.4,909.2z M3351.7,947.3c0.3-0.4,6.5-8.8,11.4-23.1c3.9-11.3,6-26.4,6.1-36.1
	c4.5,2.4,8.8,4.7,13,6.9C3373.9,935.5,3352.3,947,3351.7,947.3z M3216.7,752.5c22-9.2,49.6-11.6,79.4-5.8
	c56.4,11,84.2,49.5,88.8,99.2C3329.7,818,3272.1,785.3,3216.7,752.5z M3238,816.5c-8.4-1.3-16.8,0.1-22.9,3.3
	c-18.8,9.9-18.6,29.7-8.5,37.8c9.2,7.3,24.3,4.5,29.9-1.2c1.5,15-8.5,28.4-32,25.8c-18.4-2-47.5-21.9-37.7-71.6
	c2.1-10.8,6.4-20.5,12.3-29C3198.5,793.4,3218.2,805,3238,816.5z M3568.9,1425.7c-18.6,30.8-48.8,56.5-92,66.7
	c-18.8,4.4-35.3,6-49.7,5.4c0.3-2.3,0.6-4.5,0.8-6.8c4.4-44.3-6.3-90.1-34.7-124.9c-18.2-22.3-42.5-35.4-69.2-42.6
	c60.8-11.2,87.5-70.9,58.1-114.8c-2.1-3.1-4.3-6-6.7-8.8c24.5,2.4,50.8,6.8,79.9,13.9c47.2,11.5,87,27.5,120.4,46.1
	c13.9,31.4,18.9,66.7,15.2,99.6c-1.2,11.2-3.7,22.6-7.4,33.7c-13.2-5.2-25.7-13.3-36.7-24.5
	C3547.2,1368.7,3543.1,1402.9,3568.9,1425.7z M3311.6,1467.9c-4.9,0.1-9,3.7-10,8.5c-2,9.8,2.1,15.6,5.9,33.4
	c6.8,31.9,1.9,92.5-49.4,125.8c0,0-11.4-49.1-56.7-17.3c0,0,18.9,7.1,16,26.4c-2.9,19.2-46.6,37.9-88.6,21.6
	c-42-16.3-62.9-42.6-102.5-46.1c-39.6-3.5-64.3,29.3-41.1,56.3c0,0-33.4-11-77.6-32.2c4.4-5.2,8.5-10.9,12.4-17.3
	c9-14.9,11.2-32.1,8.2-49.6c-0.1-0.7-0.3-1.4-0.4-2.2c1.2,0.5,2.6,1,4,1.6h0c17.8,6.8,55.2,18.1,99.8,13.7
	c45.7-4.4,134.4-27.2,153.5-113.8h20.3c0,0-17.2-31.2-6.1-48.4c11.1-17.2,55.6-29.2,83.3-7.1c24.3,19.4,31.5,34.4,48.7,54.8
	c0,0,0,0,0,0c7.9,18,23.7,33.2,49.5,42.1c-9.8,25.6-26,49.2-48.1,65.9c0,0,9.9-30.1,10.1-65.3
	C3343,1488,3329.2,1467.4,3311.6,1467.9z M2632,2215.3c-13.9-21.3-33.8-30.4-52.5-33.6c3.9-0.7,7.7-1.4,11.6-2.1
	c21.6-4.1,42.5-9.1,62.7-14.9c12.8,12.1,39.3,31.5,78.7,33.1c-17.3,9.5-34,22.8-50.4,41c-13.7,15.3-30.5,36-52,57.5
	C2646.2,2268.6,2647.1,2238.5,2632,2215.3z M2264.2,2198.6c-34.3-42.9-75-52.3-103.8-51.1c5.4-8,10.8-18.9,10.9-30.9
	c0.1-4.2-0.8-7.9-2.3-11.2c52.5,45.3,134.2,75.1,228.7,84c-3.4,1-6.6,2.5-9.7,4.5c-7.3,4.8-12.4,12.3-14.8,20.7
	c-1.6,5.6-2.3,12.2,0.7,17.5c3.4,6.1,11.5,7.8,17.4,4.3c6.6-4,5.2-11.7,7.9-17.9c2.9-6.4,8.9-9.1,15.7-9.5c0.7,0,1.3-0.1,2-0.1
	c16,0,35.9,21.1,22.3,49c-12.3,25.3-55,40.2-90.6,39.5C2317.3,2269.3,2290.9,2232,2264.2,2198.6z M2305.8,2290.3
	c-28.6-8-60.2-23.6-83.1-51.8c-3-17.4-7.2-34.3-17.8-48.9c-0.2-0.3-0.5-0.6-0.7-0.9C2238.6,2202,2264.8,2243.8,2305.8,2290.3z
	 M2080.5,2268.9c0,0,25.1,3.4,35.7-5c10.6-8.4,12.1-30.2-4.6-38.1c-16.7-7.9-35,7.7-39.2,13.9c0,0-18.5-6.1-31.4-25.9
	c11.8-11,30.6-24.8,56.3-31.1c46.2-11.4,78.2,11.1,91.3,37.8c13.2,26.7,2.7,87.1-52.6,96.9
	C2100.8,2324.2,2082.8,2293.9,2080.5,2268.9z M2086.9,2320.9c-0.7-0.2-22.1-8.7-33.7-39l8.7-3.2
	C2062,2278.7,2069.3,2306.7,2086.9,2320.9z M2032.6,2193.9c-4.2-19.7,3.5-39.3,17.1-57.1c17-22.1,48.7-30.3,63.4-29.2
	c14.8,1.1,26.1,11.4,26.3,24.4c0.1,6.7-2.9,14.2-5.9,19.8c-19.4-1.4-39.4,2.4-56.9,10.9c-0.3,0.1-0.5,0.3-0.8,0.4
	C2061.5,2170.3,2044.8,2180.9,2032.6,2193.9z M2276.6,1989.4c0,0,7.5-1.9,16.4-4.9c42.6,33.1,107.6,56.2,139.9,66.3
	c-16.8,13.9-38.9,25.1-68,30.3c-81.9,14.6-153.1-22.6-187.4-45.4c-5.2-7.1-9.7-14.3-13.7-21.8c17.2,10.6,67.3,33.6,130.4-7.3
	L2276.6,1989.4z M2477,1736.6c1.6-23.6,33.4-43.5,89.5-32c18.3,3.7,41.7,12.4,64.2,28.2c-53.5,3-72.6,26.4-67.7,53.9
	c1.1,6.4,3.6,11.2,6.8,14.9c-3.4,0-6.7,0.2-10,0.6c-30.1,3.6-43.9,23.2-47.3,44.5c-6.4-23.9-19.9-46.8-42.6-57.7
	c13.5-0.4,27.6-8.3,34.1-17.6C2504.1,1771.2,2475.4,1760.1,2477,1736.6z M2717.7,1776.9c29.7,10.9,45.9,56,46.4,57.5c0,0,0,0,0,0
	c10.1,77-13.1,154.8-60.9,211.5c-6.8,1.4-13.6,2.8-20.5,4c11.3-12.5,21.8-26.3,29.9-41.1C2745.1,1949,2758.8,1849.6,2717.7,1776.9z
	 M2686.7,1072.2c1.4,1.9,3,3.6,4.8,5.3c-32.7-9.1-60.2-14.6-82.8-17.8c28.8-9.4,54.5-21.7,77.2-36.1
	C2675,1039,2679.2,1062.2,2686.7,1072.2z M2671.4,849.4c-25.9-1.9-27.3,23.4-27.3,23.4s17.2-1.6,22.2,12.8
	c5.1,14.4-14.6,29.2-40.3,21.8c-25.7-7.4-42.4-41.7-26-75.4c16.1-33,75.5-47.3,117.2-20.5c39.9,25.7,44.8,76.7,36.3,105.7
	c-10.9,36.8-29.9,57.1-51.5,75.2c2.2-2.1,21.8-21.4,17.8-56.9c-3.3-28.7-20.2-36.4-33.8-35.2C2700.8,877.4,2693.7,851,2671.4,849.4z
	 M2883.7,989.3c-1.2-16.5,2.1-33.6,5.4-45.8c19.3-33.8,32.2-44.9,32.2-44.9s-31.9,88,65.3,140.1c28.3,15.1,59.3,24.1,90.8,28.6
	c-3.8,1.5-7.5,3.2-11,5c-42.9,22.4-45.6,48.8-40.9,65.4c-135.2,20.2-236.6-27.4-292.8-47.4c14.4-0.6,31.2-4.9,49.5-14.7
	c28.6-15.2,50.2-38.5,68.1-64.7c1,14.4,9.7,31.1,31.9,32.2c26.8,1.2,38.3-18,38.3-18C2895.7,1026.1,2885.1,1008.3,2883.7,989.3z
	 M3189.8,1321.5c-15.9,2.8-32.7,6.8-49.5,12.2c-19.8-19.3-44.2-33.7-70.1-41.4c51.7-4.6,94.4-19.5,125.4-41.4
	c1.1,21.5,15.9,49.8,53.2,64.6C3229,1315.9,3209.2,1318.1,3189.8,1321.5z M3348.9,1368.5c11.1,6.9,20,16.2,26.8,27.3
	c-23.1-0.4-45.6,15.6-49.8,41.8c-17.7-23-41.6-44.7-78.1-46.6c-28.3-1.5-50.5,9.7-61.8,25.3c-5-25.7-16.8-49.1-33-68.8
	C3197.4,1336.9,3289.9,1332.2,3348.9,1368.5z M2559.5,1528.2c27-5.6,54.9-7.1,82.4-5.7c61.7,3.2,117.4,30.8,176.4,46.1
	c25.9,6.7,52.7,10.9,79.5,10.9c4,19.2-0.9,38.1-12.5,53.7c-12.4-6.4-25.3-13.6-38.4-21.4c-70.5-42.4-132.1-71.7-222.3-75.9
	c-88.9-4.1-128,19.4-129.1,20.1C2496.4,1555.1,2515.7,1537.2,2559.5,1528.2z M2819.6,1393.9c14.9-19.4,44.3-40.4,78.3-38.7
	c34,1.7,47.9,19.4,50.6,32.9c2.7,13.5-11,19.6-12.7,15.5c-2.2-7.4-5.6-9.3-10.4-8.5c-7.4,1.3-11.7,5.2-13.2,10.7
	c-1.2,4.3-0.6,18.4,15.3,21.3c-16.6,3.7-32.1,11.9-43.2,23.9c-9.8,10.7-16.8,26.2-10.8,40.5c1.1,2.6,2.4,5,3.9,7
	c-7.4-5.7-15.3-10.8-23.8-15c-39.1-19.6-83.6-30.5-135.6-28.9c50.7-19.3,68.7-42.2,68.7-42.2s-0.1,27.3,18.2,28
	c18.3,0.7,29.7-13.4,39.2-27.3c9.5-13.9,26.1-18.1,26.1-18.1C2842.3,1388.2,2819.6,1393.9,2819.6,1393.9z M3018.9,1236
	c65.2,1.3,116.5-9.2,166.5-19.5c-42.9,46.4-129.2,68.4-223.3,45.7c-126.7-30.5-161.8-76.7-163.4-78.8
	C2800.8,1185.2,2856.1,1232.7,3018.9,1236z M2863.4,1196.4c1.4,0.4,54,16.8,150.8,10.7c80.3-5,128.7-18.1,195.3-31.5
	c-1.7,5.4-3.8,10.6-6.3,15.7c-34.9,7-72.8,15.1-118.4,21.8C2936.7,1235,2865.1,1197.3,2863.4,1196.4z M3110.1,1344.9
	c-39.4,17-75.3,42.5-94.2,79.3c-4.7,9.1-7.8,19.2-8.1,29.3c-0.9-1.4-1.9-2.7-3-4c-13.5-16.2-33.8-24-54.6-24.6
	c26.8-10.9,34-59-3.5-77.5c5.7-3.7,11.4-10.9,16.3-18.3c7-10.7,21.7-19.8,54.1-20.6C3039.7,1308,3079.3,1314.6,3110.1,1344.9z
	 M2889,1556.9c2,3.4,3.7,6.9,5.1,10.3c-14.9-0.6-31.7-3.3-50.4-9c-37.3-11.2-74.5-25.5-112.6-35.5c-39.1-10.3-79.2-14.9-119.5-12.4
	c-2.6,0.2-5.1,0.3-7.6,0.6c-29,2.4-57.8,8.1-85.6,16.9c-4.9,1.6-9.8,3.2-14.7,4.9c0,0,60.8-42.3,168.4-51.7
	C2779.8,1471.7,2860.6,1508.6,2889,1556.9z M2887.8,1507.4c11.4,5.9,24.3,3.8,25.9,1.6c2.4-3.3-26.2-15.1-19.5-37.5
	c11.3-37.9,66-37.7,89.3-11.9c16.2,17.9,18.2,46.6,4.5,66.5c-10.5,15.3-30.5,32.7-62.8,38.8
	C2918.8,1544.4,2905.6,1524,2887.8,1507.4z M3013.4,1519.9c4.1-11.6,5.9-24.8,4.6-37.4c12.3,9.8,32.6,3,40.3-4.7
	c14.1-14,9.6-29.2-2.2-30.3c-10.3-1-16.5,4.1-14.2-6.6c2.1-9.8,14.5-54.3,80-82.6c8.3,10.8,15.5,23.9,21,39.6
	c26.7,76.1-32.6,197.4-176.7,169.4C2987.4,1558.2,3005.2,1543.3,3013.4,1519.9z M3213.5,1154.4c-0.1,0.9-0.2,1.9-0.3,2.8
	c-62.8,13.9-130.3,30.2-209.2,37.6c-177.6,16.6-265.1-69.4-266.3-70.6c1.8,1,131.1,72.9,266,53.1c76.9-11.3,143.8-38.4,203.1-65.3
	C3212.2,1123.2,3214.9,1137.2,3213.5,1154.4z M2722.4,1357.8c8.7-15.3,12.5-35.7,7.7-60.9c-4.7-24.8-17.4-43.1-35.6-56.7
	c-2.4-8.1-9.6-11.1-15.6-9.8c-14.4-7.7-31.2-13.3-49.5-17.5c5.9-18.5,23.9-31.8,51-33.2c33.6-1.7,81.4,23.1,90.5,75.9
	c9.1,52.8-3.3,102.8-35.2,137.2C2735.8,1392.8,2736.3,1369.9,2722.4,1357.8z M2709.5,1351.3c-1,0.1-2,3.2-3.7,8.4
	c-9.1,11.1-23.5,20.1-45.5,20.8c-47,1.5-52.6-35.2-50.2-50c2.5-15.4,16.1-27,30.2-26.8c14.1,0.2,20.3,10.6,20.3,10.6
	c-20.5-0.3-19.6,11.4-18.8,17.1c0.7,5.7,9,13.8,20.8,10.5s15.7-16.1,11.9-25.9c-3.8-9.8-17.9-22.8-38.7-22.4
	c-6.7,0.1-13.4,2.2-19.2,6.1c2.4-10.1,4.5-20.3,6.2-30.6c6,6.2,14.3,11.9,25,13.2c23.1,2.8,41.1-9.3,46.3-26.7
	c22.3,20.6,27.6,52.1,26.5,67.3c-0.5,7.2-3,18.3-9.1,28.8C2710.7,1351.6,2710.1,1351.4,2709.5,1351.3z M2669,1239.8
	c-0.9,3-0.6,6.1,1.2,8.5c3.4,4.5,3.3,13.8-9.6,16.5c-12.8,2.7-33.3-12.6-33.3-38c0,0,0,0,0,0c0-0.5,0-0.9,0-1.4
	C2638.8,1228.2,2654.4,1232.9,2669,1239.8z M3073.5,1128c-7.1-8.6-21-30.4,6.6-45.1c25.7-13.7,77.1-17,108.1,6.6
	C3155.4,1103.9,3118.2,1117.3,3073.5,1128z M2744.4,1171.6c-36.8-20.7-88.4-21.4-116.5,17.1c-0.6-17.9-2.3-36-5.5-54.5
	c-1.3-7.6-2.7-15.1-4.3-22.3C2634.9,1116.7,2688.7,1134.4,2744.4,1171.6z M2601.3,1350.4C2601.3,1350.4,2601.3,1350.4,2601.3,1350.4
	c7.5,37.8,47.2,48,80.9,38.8c5.1-1.4,10-3.4,14.7-6c-15.3,33.4-51.3,79.9-146,72.3C2570.3,1423.2,2587.8,1388,2601.3,1350.4z
	 M2742.6,1410c80.4-70.5,66.5-184.4,18.9-226.3c-0.2-0.1-0.3-0.3-0.5-0.5c60.9,44.8,118.6,92.7,216.1,106.6
	c-32.7,7.8-45.8,23.7-48.9,27.5c-4.3,5.2-13.2,14.5-5.4,23.4c-55.9-7.1-101.3,34.8-101.3,34.8s9.9-17,13-26.4
	c3.1-9.4,1.6-21.3-18-23.6c-19.7-2.3-16.4,10.1-16.4,10.1c12,35.3-15.3,73.2-44.6,91.9c-20.7,13.2-47.9,23.8-62.1,28.8
	c-17.3,1.8-35.3,4.8-54.3,9.4c-51.8,12.4-99.5,35.3-129.9,51.9c10.7-14.6,21.4-30,31.7-46.2
	C2567.8,1472.2,2672.9,1471.1,2742.6,1410z M2598.9,1570.7c86.6-1.8,148.9,21.5,213.1,58.2c16.7,9.6,32.6,18.9,47.1,27.5
	c-10.5,6.2-22.8,11-36.4,13.5c-60.8,11.6-106.7-9.9-117.7-49.1l-15.2,19.8c-50.8-32.3-103.6-43.1-209.8-43.6
	C2480,1597,2512.3,1572.4,2598.9,1570.7z M2794.8,1691.1c32.1-2.8,60.6-8.7,84.1-22.8c30.2,18.3,50.2,30.9,50.2,30.9
	s-98.2-4.2-132.7,70.7c0,0-16.6-47.3-57.1-89.4C2756.4,1687.8,2775.8,1692.8,2794.8,1691.1z M2934.4,1792.1
	c8.5,0,13.2-4.5,17.3-11.9c4.1-7.3,9.5-14.6,24.8-17.6c0,0,47.7,75.9-24.2,154c0,0,22-68.6-21-110.6
	c-36.7-35.8-95.6-18.4-116.7,12.6c6.1-29.4,20-61.7,51.3-77.9c31.9-16.5,71.2-9,86.4-1.4c0,0-5.7,9.7-16.4,14
	c-10.7,4.3-19.2,10.9-19.4,21.5C2916.3,1785.3,2925.9,1792.1,2934.4,1792.1z M2764.5,2029.6c4-5.6,7.9-11.4,11.5-17.3
	c28-46,32-99.8,33.6-137.7c5.6,14.3,16.4,22,26.6,24.2c17.1,3.6,53.5-3.4,52.1-37.7c-1.4-34.3-43.3-22.4-46.4-5.2
	c-3.1,17.2,12.6,16.5,22.8,12.2c0,0-3.6,16.6-20.8,13.2c-17.1-3.5-28.7-22.3-21.3-49.2c7.4-26.9,51.1-36.2,79.2-22.6
	c28.1,13.6,52.7,78.1,8.5,134.9C2883.9,1978.2,2829.6,2008.7,2764.5,2029.6z M2868,2002.5c0,0-37.2,37.2-93.3,71.4
	c-13.7,5.8-28,11.5-42.9,17.1c-13.3,5-26.3,9.6-39.2,13.8c14.4-11.7,38.2-32.8,60.2-60C2789.9,2035,2828.6,2021.3,2868,2002.5z
	 M2499.7,1938.2c6.7-9.6,11.7-20.3,14.4-31.7c2.8-11.9,3.6-24.4,2.6-36.6c6.4,7.7,18.4,8.6,31.4,1.9c0,0-5.9-38.9,18.1-41.3
	c24.1-2.4,57.8,20.5,60.2,72.2c1.7,38.4-19.3,111.8-78.4,155.2c-13.6-0.9-26.9-2.2-39.7-4.1c5.9-9.8,10.9-21.7,13.5-36.2
	C2529.1,1977.2,2509,1948.8,2499.7,1938.2z M2555.6,2071.3c1.8-1,3.5-2,5.2-3c17.6,0.3,36.9,0,57.7-1.3
	c-62,47.3-154.3,75.9-271.7,58.9C2346.8,2125.9,2466.2,2121.3,2555.6,2071.3z M2671.5,2061.5c6.8-1,13.6-2,20.6-3.2
	c-26.3,27.3-58.9,48.6-96.5,61C2597.3,2118.3,2636.2,2096.4,2671.5,2061.5z M2681.1,1892.5c3.6,20.2,13.9,26,24.3,27.6
	c-7.3,52.2-33.2,101-74.1,136.5c-3,0.3-5.9,0.5-8.9,0.7c-16.2,1.2-31.9,1.7-47.2,1.5c72.8-52.7,89.2-141.9,75.7-191.8
	c-8.5-31.2-26.7-49.4-46.9-58.4l4-16.3c-15.3,7.5-31.7-2.2-27.1-14.9c4.5-12.8,29.1-26.5,64.5-7.5c34.8,18.7,51.6,53.4,52.1,54.5
	c0,0,0,0,0,0c2.1,6.6,3.9,13.5,5.4,20.8c1.9,9.3,3.2,18.6,3.9,27.9c-2.8-2.4-5.9-5.6-7.4-9.2c-3.3-7.8-12.3-20.4-25.4-21.4
	c-13.1-1-20.7,8.6-20.7,8.6C2667.5,1856.5,2676.5,1867.1,2681.1,1892.5z M2500.9,2064.4c9.7,1.1,20.7,2.1,32.9,2.8
	c-17.6,10.4-38.1,18.3-61.7,22.3C2472.1,2089.5,2487.1,2082.1,2500.9,2064.4z M2444.5,2039.9c-35.4-10.4-67-24.6-94.4-41.2
	c32,0.9,70.8-3,98.5-17.3c12.8-6.6,25.2-15.2,35.9-25.6C2481.7,1973.6,2472.7,2010.3,2444.5,2039.9z M2447.5,2282.9
	c29.5-23.1,32.8-75.1-7.3-90.9c26.3,0.7,53.4-0.1,81-2.6c-15.2,9.6-18.1,25-8,34.1c12,10.8,27.4,1,34.3-10.9
	c6.4-11.1,42.8-1.8,52.9,27.2c10,29,6.8,66.4-31.7,87.9c-38.5,21.5-101.3,27.4-161.5,6.1c-13.8-4.9-26.7-11.9-38.7-20.5
	C2404,2311,2428.5,2297.8,2447.5,2282.9z M2681.7,2156.1c82.3-27.1,156-67,236.6-113.4c-3.5,5.3-7,10.6-10.7,16.1
	c0,0.1-0.1,0.1-0.1,0.2c-1.1,1.6-2.2,3.1-3.2,4.8c-7.8,11.4-17.1,23.9-30.7,38.9c-33.3,36.7-68.1,66.1-113.6,75.1
	C2719.9,2185.8,2693.4,2168.3,2681.7,2156.1z M2927.1,2060.3c21.8-24.1,75.6-59.6,144.3-54.4c-29.4,18.2-57.2,37.8-84.4,58.6
	c-55.7,42.5-113.1,87.7-166.1,110.6C2876.7,2144.7,2895.6,2095.1,2927.1,2060.3z M3017,1888c34-66.8,2.6-126.7,2-127.9
	c28.5,9.8,57.3,45.6,30.8,112.7c-11.2,28.4-26.4,52.2-40.1,70.1c-21.9,14.6-44.4,29.4-68.2,44.2
	C2962.8,1966.3,2995.5,1930.4,3017,1888z M3360.5,1454.3c-3.2-22.1,12.8-35.4,23.3-41.7c8.6,22.7,10.2,49.8,5.2,76.5
	C3372.1,1480.9,3362.5,1468,3360.5,1454.3z M3452.6,1186.7c-41.5-8.7-76.5-12.3-108.6-12.5h0c-13.2-7.3-26.8-12-38.5-14.9
	c75.8-10.1,138.1-9.2,199.9,23.3c17.6,9.3,32.4,21.5,44.6,35.7C3520.7,1205.2,3488.1,1194.2,3452.6,1186.7z M3307.4,1175.4
	c-20.3,1.4-39.9,4.1-59.7,7.5c1.5-4.9,2.7-10,3.4-15.1c3.2-0.6,6.5-1.1,9.9-1.7c3.6-0.6,7.3-1.2,10.8-1.8c0,0,0,0,0,0
	C3282.6,1166.7,3295,1170.2,3307.4,1175.4z M3344,1197.8c20.6,19,29.8,44.5,14.9,71.1c-15.9,28.5-58,30.6-94.9,17.5
	c-33.8-11.9-29.2-41-29.2-41s9.5,3.7,17.1-1.2c10.2-6.6,11.2-29.3-8.3-36.2c-2.1-0.7-4.2-1.2-6.4-1.5c-0.3,0-0.6-0.1-0.9-0.1
	c0.3-0.1,0.7-0.1,1-0.2C3270.5,1200.5,3304.8,1196.6,3344,1197.8z M3215.2,1077.1c-6.5-4.4-13.6-8-21.1-11
	c33.5-4.9,63.1-13,84.6-21.6C3258.6,1055.1,3237.8,1066.2,3215.2,1077.1z M2924,875c-21.2,15.4-36.5,36.3-50.1,58.8
	c-3.6-5.6-11.9-15.3-26.1-14.7c-19.9,0.8-24.6,25.4-32.1,46.5c-7.5,21-26.6,31.3-26.6,31.3s23.5-2.8,35.4-12.2
	c10-7.9,17.5-8.2,22.9-4.8c-8.4,14.4-17.3,28.4-27.6,41.1c-37.1,45.4-68.8,58-95.8,48.4c-22.8-8.1-13.3-34.2-13.3-34.2
	c9.1,12.5,29.7,8.4,30.3-6.4c0.7-16-18-23.4-36.2-18.1c16.1-11.9,30.4-24.8,43.1-38.4c35.3-37.8,53.3-107.6,18.2-151.7
	c-1.7-2.1-3.4-4.1-5.3-6c4,0.7,8,1.3,12.1,1.8c64.8,7.8,101.6-18,113.4-49.6c-0.2,5.7,0.2,11.5,1.1,17.1
	c3.6,23.1,17.8,59.1,65.5,76.5C2943.4,863.2,2933.7,868,2924,875z M2879.1,704.2c12.9,5.4,26.8,9,41.2,9.9
	c-15.6,6.4-25,17.4-29.8,30.2c0.1-3.8-0.2-7.5-0.8-11.2C2888,721,2884.2,711.5,2879.1,704.2z M2872.5,635.1
	c3.7-13.6,15.5-17.3,25.9-17.8c27.8,13.9,55.8,29.1,84.1,45.4c-13.5,13.5-35.2,26.1-60.9,23.5
	C2886.3,682.5,2866.5,657.3,2872.5,635.1z M2679.9,781.9c-26.2-1.2-51.9,4.6-69.2,17.1c-26.2,18.8-36.9,42.5-36.4,64.5
	c-4.8-13.2-12.6-25-20.2-31.5c-4-3.4-8.2-6.4-12.6-8.9c23.3,1.8,57.1-7.6,76.8-50.1c5.7-12.3,10.7-37,5.3-64.5
	C2635.1,739.5,2654.8,764,2679.9,781.9z M2622.1,577.8c-48.5-4.4-85.2-19.8-108.9-33.3c38.6-2.9,80.6-3.9,124.1-1.4
	C2633.6,549.6,2627.4,561.5,2622.1,577.8z M2522.6,555.8c26.7,15.1,58.8,27.6,96.6,31.6c-6.4,23.1-10.3,53.1-4.7,87.4
	c0.7,4.1,1.5,8.1,2.4,12.1c-10.9-26.6-33.3-53.6-75.3-73.1c-102.9-47.8-223.1-35.3-227.3-34.9c3.2-1,81.9-24.4,189.9-33.5
	C2509.5,548.3,2515.6,551.8,2522.6,555.8z M2224.5,743.4c23.6-30,77.9-39.1,77.9-39.1c-27,16.5-36.1,39.3-58.5,63.4
	c-22,23.7-50.7,36.5-51.6,36.9C2212.2,785.2,2212.2,763.8,2224.5,743.4z M2243.6,803.9c21.7-22.7,46.5-66.7,86.1-101.6
	c17.1,1.1,49.4,6.1,79.4,26.9c43.4,30.1,25.2,75.9,0,78.8c-25.2,3-22.9-16.8-26.9-23.2c-4-6.4-16.2,2.7-15,11.1
	c1.3,8.4,15.3,29.4,41.4,28.5c26.1-0.9,52.4-19.9,46.1-58.8c-5.6-34.8-50.3-65-113.9-72.7c14-10.9,29.7-20.5,47.5-27.8
	c77-31.3,158.5-14.6,186.5,37.2c28,51.8-1.9,96.3-29.5,99.7c-27.8,3.4-30.3-20.4-31.2-18.9c-1.5,2.5-10.7,16.1,1.8,30.1
	c-26.2-6.1-54.9-2.2-77.2,6.8c-25.4,10.2-43,24.4-50.3,31c-4.4-1.2-8.7-2.3-13-3.2c-92-20.4-176.5-8.9-180.7-8.3
	C2196.8,839,2214.5,834.3,2243.6,803.9z M2519.4,906.2c-5.7,1.6-4.9,9.7-3.4,15.8c-34.2-31.9-72.2-52.7-108.4-65.2
	c11.4-9.4,37.9-26.3,79.6-24c53.5,2.9,68.6,52.6,60,67.4C2538.7,915.2,2528.8,903.5,2519.4,906.2z M2578.9,886.6
	c2.9,7.4,7.2,14.2,12.5,20.2c20.4,22.9,55.7,25.1,78.7,9.8c5.1,0.8,10.8,4.4,15,15.1c7.2,18.6,0.9,58.4-8.8,72.9
	c-8.7,13.1-43.4,30.8-77,43.2c-18.3-47.6-43.5-85.3-71.9-114.7C2567.3,930.3,2579.7,909.2,2578.9,886.6z M2330.6,1875.3
	c6,42.1-16.3,73.6-25.5,84.6c-30.4-39.7-46.2-98.9-30-151.3C2286.7,1813.1,2324.3,1830.9,2330.6,1875.3z M2027,2312
	c28.7,41.1,67.4,61.8,109.8,89.1c42.5,27.3,75.5,68.7,75.5,68.7c-61.1-34.4-104.9-40.7-147-78.9C2023.2,2352.7,2027,2312,2027,2312z
	 M3047.8,1917.6c14.7-20.8,40.2-62.9,38.7-101.5c-2.1-54-30.8-70.3-30.8-70.3c85.3,0.1,176.1-11.7,248.1-60.8
	c6.3-4.3,12.5-8.8,18.5-13.7c15-2.3,34.3-3.5,50.3,1.1c31.5,9.1,23.4,38.8,23.4,38.8s24.7-1.2,29.3-18.5
	c3.7,12.8,11.5,25.6,23.8,36.2c23.6,20.2,51.7,27.7,51.7,27.7s-126,5-259.2,56C3166.2,1841.5,3107.4,1878.1,3047.8,1917.6z
	 M3613.3,1283.4c38.3,27.5,65.5,58.5,83.9,88.6c-24.5,21.7-56.9,31.6-88.1,27.6c1.4-4.7,2.7-9.5,3.8-14.5
	C3620.7,1350,3620.9,1315.3,3613.3,1283.4z M3692.5,1140.9c29.2,63.3,10.4,102.7-18.9,113.1c-33,11.7-39.4-19.8-39.4-19.8
	s12,2.3,18-6c7.6-10.4-0.9-31.2-23.3-30.8c-20.4,0.4-35,22.1-30.4,45.1c0.2,0.3,0.3,0.7,0.5,1c-0.1-0.1-0.2-0.1-0.3-0.2
	c-0.1-0.3-0.1-0.6-0.2-0.8c-26.2-52-77.7-91.3-155.3-104c-65.3-10.6-126.2-2.8-190.8,10.4c-0.1-4.8-0.5-9.6-1.2-14.5
	c-2.1-14.2-7.1-26.3-14.3-36.3c33.7-15.7,64.8-30.3,93.9-40.7c86.8-30.8,148.6-27.8,148.6-27.8s-4.9,21.6,18.7,31.3
	c23.6,9.8,77.4,11.2,80.3,61.6c0,0,20.6-9.3,22-36.1c1.4-26.7-7.6-29.7-6-41.2C3594.3,1045.3,3660.9,1072.3,3692.5,1140.9z
	 M3717.9,896.5c-16.9,22.8-80.1,52.6-214.4,2.6c-26.8-10-55.4-22.4-85-36.6c0.2-3.3,0.3-6.7,0.3-10.1c-0.1-34.1-7.4-60.6-19.7-80.7
	c12.9,13.3,27.9,26.9,45.5,40.6c82.8,64.7,174.1,70.5,227,62.4c50-7.6,52.8-32.9,52.8-32.9C3729.8,852.7,3734.8,873.7,3717.9,896.5z
	 M3581.6,595.2c1.9-5.6,15.5-18.2,40.7-23.8c25.2-5.6,55.9-8.3,89,26.7c18.3,19.3,25.4,41.1,28.1,56.7c-10.2-24.2-29-43.4-51.3-50.3
	c-37.6-11.7-61.3,3.5-69.5,19.4c0.6-24.3-23-26.1-23-26.1C3589.8,605,3579.2,602.1,3581.6,595.2z M3553.1,638.2
	c15,25.5,51.1,20.7,62.1-0.6c0.2,11,6.6,20.5,20.8,21.7c14.1,1.1,26.2-8.6,28.4-21.3c0,0,39.6,7.1,37.5,60.8
	c-2.1,53.7-66.2,73.2-116.3,65.7c-41.9-6.2-87.1-31.9-122-62.1c18.6,1.3,42.5-3.3,63.5-20C3551.2,663.2,3553.1,638.2,3553.1,638.2z
	 M3399.7,603.6c21.8,5.6,36.5,0.2,45.9-8.5c0,0,0.7,16.4,16.5,27.2c0,0,5.3-20.2,27.9-23.5c22.7-3.3,47.3,17.6,34.5,53.3
	c-11.2,31.3-46.9,41.3-68.3,43.6c-2.3-2.1-4.5-4.2-6.6-6.3c-45.8-45.1-75.2-81.9-93-104.1c-2.3-2.8-4.4-5.6-6.2-8.1
	C3366.8,588.7,3383.3,599.4,3399.7,603.6z M3516.1,771.3c105.4,58.4,202.7,10.5,223.8-39c4.7-11.1,7.1-22.5,7.5-33.8
	c3.4,40.8-10.5,93.9-89,111.9c-57.8,13.3-140.4,9.4-230-63.6c-87-70.8-100.7-174.2-100.7-174.2S3405.5,710.1,3516.1,771.3z
	 M3310.8,639.2c1.2-3.5,2.2-7,2.9-10.5c2.3,5.2,4.5,10.6,6.6,16c12.7,32.2,27.8,65.1,54.5,99.2c-21.9-17.6-49.7-25.9-78.4-27.9
	c-34.7-2.4-71.8,6.4-100.9,23.9c-7.7-4.6-15.4-9.2-23-13.8c0.8-6.2,1.3-12.6,1.5-19.2c0.4-11.5-0.1-22.5-1.3-33
	c4,4.2,8.8,8,14.2,11.4C3221,706.5,3289.5,700,3310.8,639.2z M3230.2,530.7c20.5,8.2,37.3,22.7,51.5,41.4c5.7,11.7,10,26.6,8.4,43.7
	c-3.7,41.4-40.3,61-70.1,49.9c-32.1-12-27.7-43.3-19.7-50.4c0,0,8.1,8,21.5,3.8c13.8-4.4,19.5-22.8,9.6-37.4
	c-11.6-17.2-48.1-18.5-66.8,8.8c-3.9,5.8-6.9,12.3-8.7,19.1c-13.7-33.1-31.7-56.3-40.3-66.4C3155.9,517.2,3203.4,519.9,3230.2,530.7
	z M3089.4,566.2c38,41.6,51.6,89.4,49.8,139.7c-34.9-21.3-67.9-41.6-97.4-59.6c-0.8-0.5-1.7-1-2.5-1.5
	C3060.2,615.4,3073.2,584.9,3089.4,566.2z M3132.3,753.1c-15.6,52.1-59,92.6-123.9,89.3c-75.5-3.8-79.8-68.5-79.8-68.5
	s39.6,8.6,48.9-22.6c4.6-15.4-4.3-34.8-23.5-40.4c12.6-3.2,25.4-8.9,37.9-17.6c6.6-4.6,12.6-9.5,18.1-14.6
	C3050.1,702.4,3090.8,727.7,3132.3,753.1z M2895.4,479.5c17.4,26.2,20.4,34.4,31.3,37.1c10.9,2.7,53.5-8.1,73.2,25.1
	c16.6,27.9,7.1,69.7,3.6,82.5c-86.3-47.3-168.3-76.3-203.7-87.8c42.4-38.4,52-87.1,52-87.1S2878,453.3,2895.4,479.5z M2651.6,412.6
	c0,0,27.9,17,54.2,5.1c29.3-13.2,24.6-48.5,8.3-58.5c-16.3-10-31.3,0.2-30.7,13.7c0.6,13.7,18.2,15.9,25,9.9c0,0,3.8,11-8.1,19.8
	c-11.1,8.3-36.9,6.9-47.4-13.4c-10.5-20.2,2.8-71,60.7-69.2c119.6,3.7,119.6,109.2,119.6,109.2c-125,8.9-179.2,83.2-179.2,83.2
	c-17.6-0.2-35.9-1.2-35.9-1.2S2663,486.6,2651.6,412.6z M2490.9,415.8c0,0-4.4-29.2-45.3-34.5c0,0,67.6-42,132.5-14.2
	c62.6,26.8,63.5,101.5,2.6,121.2c0,0-1.7-34.4-30.2-34.3c-27.2,0.1-29,29.6-29,29.6s9.8,8.2,5.7,20.8c-4,12.6-27.6,6-78.7,11.5
	c-76.2,8.3-127.8,22.3-218.4,57.7C2230,573.6,2349,427.7,2490.9,415.8z M2205.4,325.7c52.5,57.9,34.5,138.4,34.5,138.4
	c-0.7-18-13.5-28.8-13.5-28.8c-2.3,6.1-8.7,15.4-22.8,21.6c-14,6.2-18.2,9.5-28.4,22.9c-10.2,13.5-20.8,18.9-20.8,18.9
	c19.8-22.6,56.1-100.6,9.9-152.7c-46.6-52.6-118.2-13.1-118.2-13.1c1.4-17-16.4-26.9-16.4-26.9S2125.7,237.8,2205.4,325.7z
	 M2010.5,354.4c5.8,11.7,20.5,6.7,20.5,6.7c-4.9,61.5,47.8,51.4,47.8,51.4c-1,31.9-45.3,33.1-60,11.8
	C2002.8,401.2,2010.5,354.4,2010.5,354.4z M2009.2,425.2c-0.3-0.9-0.5-1.4-0.5-1.7C2008.8,423.8,2009,424.4,2009.2,425.2z
	 M2009.3,425.4c2,5.5,9.2,21.9,27.1,32.3c17.1,9.9,48.9,5.4,55.9-14.7c6.8-19.4-10.5-31.6-10.5-31.6c26-9.3,19.1-32.7,4-35.3
	c-13.2-2.4-18.3,9.2-18.3,9.2s-17.6-0.2-18-18.9c-0.5-20.4,29.4-32.1,54.8-30.3c31.7,2.3,87.4,43,52.4,121.5
	c-33.8,75.8-128.8,145.4-128.8,145.4c-1.8-16.3-20.8-14.3-20.8-19.9c0-4.6,21.9-9.8,22.7-33.2c0.7-21.4-18.7-27.5-21.9-30.3
	c-3.2-2.8-3.4-5.5-1.5-7.5c0,0,13.8-10.1,14.9-29.5c1.2-22.3-13.4-34.7-13.4-34.7C2012.2,438.6,2010.4,429.3,2009.3,425.4z
	 M2000,949c-15.7-25.1,0-49.4,0-49.4S2015.7,923.9,2000,949z M2010.6,479.8c-0.9,16.5-10.6,23.6-10.6,23.6s-9.8-7.1-10.6-23.6
	c-0.9-16.5,10.6-28,10.6-28S2011.5,463.3,2010.6,479.8z M1978.8,482.5c1.1,19.4,14.9,29.5,14.9,29.5c1.8,2.1,1.7,4.7-1.5,7.5
	c-3.2,2.8-22.6,8.9-21.9,30.3c0.8,23.4,22.7,28.6,22.7,33.2c0,5.7-19,3.7-20.8,19.9c0,0-95.1-69.6-128.8-145.4
	c-35-78.5,20.7-119.3,52.4-121.5c25.4-1.8,55.2,9.9,54.8,30.3c-0.4,18.7-18,18.9-18,18.9s-5.1-11.5-18.3-9.2
	c-15.1,2.7-22,26.1,4,35.3c0,0-17.3,12.2-10.5,31.6c7.1,20,38.9,24.6,55.9,14.7c17.9-10.4,25.1-26.8,27.1-32.3
	c-1.1,3.9-2.9,13.3,1.5,22.4C1992.2,447.8,1977.6,460.2,1978.8,482.5z M1963.3,934.2c-3.7-14.1-20.5-23.1-20.5-23.1
	c27-16.6,34.9-44.9,34.9-44.9c5.7,12.8,4.3,23.1,4.3,23.1C1959.1,905.5,1963.3,934.2,1963.3,934.2z M1863.3,943.5
	c-7.2,3.6-17.9,17.8-17.9,17.8c29.3-1.1,39.7,15.1,34.2,25.7c-5.6,10.6-23.6,40.3-104.1,14.9c-20.7-6.5-39.6-15.9-56.4-26.4
	c40.2,6.1,68.1-3.3,68.1-3.3s-13.2-3.4-27.2-11.3c-28.1-15.9-45.5-43.6-65-35c-11.9,5.3-13.4,15.6-12.8,22.7
	c-17.5-14.7-30.1-28.2-36.6-35.8c87.2-23,179.1-5.3,217.8,13.5c60.3,29.4,83,69.1,67.4,92.8c-8,12.1-20.6,13.4-31,11.8
	c10.7-6.8,17.8-17.2,18.4-32.4C1919.9,954.7,1870.5,939.9,1863.3,943.5z M1550.8,1022.9c-25.9,17.9-55.7,27.4-72.4,31.8
	c9.3-20.4,20.9-39.8,35.2-57.9c24.5-31.1,54.5-52.9,86.6-67.7c0.8,13.4-0.7,33.7-11.9,54.3c-3.6-5.1-10.5-11.6-22.7-11.1
	c-20,0.8-22.3,32.4-64.1,47.8C1501.5,1020.1,1523.4,1029.2,1550.8,1022.9z M1470.3,1301.5c0,0,4.9-30.1,37.1-30.1
	c32.2,0,59.7,30.5,61.8,68.7c2,37-21.7,79.7-62.6,103c-16.9-35.4-31.2-74.5-41.4-115.1c5.8,2.8,12.8,4.4,18.9,1.3
	C1494,1324.3,1494.5,1301.5,1470.3,1301.5z M1576.4,1498.9c-5.5-7.4-24.7-7.9-30.4,7.5c-11.8-15.6-22.2-31.1-30.6-46.2
	c13.3-4.9,55.3-17.5,84.8,7.2c35.4,29.7,2.4,69-25.4,51.6C1574.8,1518.9,1582.8,1507.5,1576.4,1498.9z M1613.2,1728.1
	c15,16,27.7,34.3,45.4,33c17.7-1.2,16.8-21.8,16.8-21.8c20.3,15.3,34.4,33.5,43.3,53.3c-32.6,6.7-70.1,27.1-76,80
	c-6,53.6,29.2,89.8,41.1,100.3c-1.8,1.8-3.5,3.6-5.4,5.3h0c-1.3,0-4.1,2.1-5.4,2.7c-32.3,13.9-72.8,8.5-104.3-5.2
	c-18.4-8-35.1-20.5-46.1-37.5c-17.5-27-21.1-67-2.5-94.5c5.2-7.8,12.1-14.3,20-19.4c0.8-0.5,14.3-7.9,14.6-7.2
	c0,0,8.6,21.8,28.5,22.9c19.9,1.1,27-18.7,21.3-31.9c-9.2-21.4-32.5-28.3-53.9-25.4c9.3-6.5,16.1-18.4,16.1-36.6
	c0-26.4-16.8-59.4-75.1-69.9c-58.4-10.5-139.4,7.5-196,80.9c-0.2,0.2-0.4,0.5-0.5,0.7c-7.2-1-21.9-1.9-38.5,3.2
	c58.9-131.3,222.5-142.1,293.2-121.8c37.1,10.7,74.2,32.5,101.5,51.1c9.4,8.5,18.9,16.9,28.3,25.1c-71.5-33.8-128-25.7-128-25.7
	C1576.1,1698.2,1598.3,1712.1,1613.2,1728.1z M1760,1811.3c0,0,29.3,13.6,30.4,36.7c1.1,22.2-16.2,30.9-26.4,10.1
	C1764.6,1830.9,1760,1811.3,1760,1811.3z M1761.7,1887.1c7.6,6.5,23.9,16.9,42.4,6.5c19-10.8,20.5-38.6,17.4-58.7
	c13.8,11.8,26.6,23,38,33.7c0.8,6.7,1.4,14,1.8,21.8c-9.9,109.5-110.5,94.2-144.4,85.8c7.2-6.4,13.4-13.2,18.3-20.3
	C1750.6,1933.9,1758.3,1909.5,1761.7,1887.1z M1908.3,1919.2c49.3,55.3,54,73.6,54,85.6c0,13.8-17.2,19.2-15,48.3
	c1.3,17.4,33.7,58.7,34.7,60c-67.7-70.8-96.3-54.9-104-45.7c-7.7,9.2-3.6,20.9-3.6,20.9c-8.2-2.4-19.1-1.5-28.2,2.8
	C1900.3,2034.7,1910,1967.1,1908.3,1919.2z M1710.2,2393c0,0-93.9,25.6-197.5-6.9c-25-7.8-47.2-18.2-67-29.9
	c5.2,2,10.7,3.8,16.3,5.4c72.1,20.6,158.3,1.1,212.7-50.6c5.5-0.8,11.2-1.9,17.2-3.2c58.1-12.8,85.6-39,85.6-39
	c16,61.5,84.7,73.2,84.7,73.2c-83.1,22.6-151.4-24.8-151.4-24.8c-8.9,7.9-8.8,24.8-8.8,24.8c-16.6-1.3-32.4-13.5-32.4-13.5
	C1648.8,2369.3,1710.2,2393,1710.2,2393z M1369.7,2408.1c-0.5-0.1-1-0.1-1.5-0.1c3.1-14.7,4.1-29.5,2.9-43.8
	c-6.2-75.8-71.7-83.6-98.6-73.1c-26.8,10.6-9.7,41.5-9.7,41.5c8.5-10,17.8-15.4,36.9-16.1c13.7-0.5,40.3,10.9,43.7,40.6
	c1.4,12.3,1.7,29.3-3.1,49.1c-51.5-1.1-90.6,10.9-121.3,29c-36.4-9.1-71.6-21.4-107.3-37.4c32.4-17.7,31.2-57,15.7-77.6
	c-17.2-22.9-57.3-40.9-109.2-25.8c-18.8,5.5-34.6,14.2-47.7,24.2c-41.6-26.3-82-52.1-121.6-77.1c26.1-87.3,121.4-108.2,168.3-81.5
	c49.3,28.1,36.3,75.8,36.3,75.8c-11.1-14-45.5-19.8-51.3,2.9c-5.8,22.7,22.7,54,55.5,44.1c32.8-9.9,47.9-55.1,25.5-99.9
	c-22.4-44.8-99.2-72.6-164.5-51.8c-14.3,4.5-27.6,10.8-39.7,18.7c3-4.6,4.9-9.8,5.7-15.3c3.4-22.8-7.2-36-24-38.7
	c-16.8-2.6-26.9,12.7-20.2,22.2c6.7,9.5,17.1,5.5,17.1,5.5c2,4.1,2.1,9-0.1,13.1c-5.4,10-21.3,13.1-31.6,12.4
	c-3.3-0.2-6.5-0.9-9.6-2.1c-20.3-7.7-26.8-32.9-22.1-52.3c5.8-24.3,22.8-44.1,43.2-57.8c17.8-12.1,38.2-20,58.9-25.3
	c1.7-0.4,3.4-0.8,5.1-1.2c61.4,34.2,115.9,71.9,167.6,108.1c39.2,27.4,80.5,48,107.2,59.9c-37.8,2.8-76,19.7-81.2,64.3
	c-6.5,56.1,36.2,72.4,58.6,66.7c21.8-5.6,31.2-33.7,8.9-45.7c0,0-2.1,14.1-19.8,12.3c-16.6-1.7-26.7-29.3-8.1-50.3
	c20.4-23,72.2-31.9,119.5-8.7c47.4,23.2,87.3,86.9,131.3,125.6c44,38.7,144.3,96,294.1,75.6c-2.4,0.8-81.6,25.3-195.5,34.2
	C1445,2436.7,1413.1,2412.8,1369.7,2408.1z M1470.4,2453.2c-21.4,1.4-43.9,2.2-67.3,2.2c-17.8,0-34.9-0.4-51.6-1.3
	c6.1-11.7,10.9-23.8,14.3-36c13.9,0.8,25.8,2.9,34.7,5.9C1424.1,2432,1451.8,2444.4,1470.4,2453.2z M1245.6,2441.1
	c30.1-14.1,62.7-20.9,91.3-22.8c-3.6,10.7-8.7,22-15.9,33.7C1294.9,2449.6,1269.9,2446,1245.6,2441.1z M1298,2482.1
	c-6.2,6.8-13.2,13.6-21.1,20.5c-47.2,40.8-94.5,46.6-123,45.8c4.3-25,17.2-50.6,41.4-73.3c3.8-3.6,7.7-7.1,11.8-10.3
	C1237.5,2472.2,1267.9,2477.9,1298,2482.1z M1094,2379c-11,3.2-16.2-8.6-16.2-8.6l-4.7,8.6c-24.2-12.5-48.8-26.8-74.4-42.9
	c-2.2-1.4-4.4-2.8-6.6-4.1c15.6-14.3,33.4-21.7,45.9-23.6c33-5,57.3,6.2,66.2,28.3C1113.2,2358.8,1104.9,2375.8,1094,2379z
	 M465,1969.3c-48.8,2.7-43.6-67.9,84.9-84.1c119.6-15.1,271.5,9,430.2,99c10.8,6.2,21.5,12.2,31.9,18.3
	c-28.4-9.2-59.2-12.2-88.3-10.6c-5.3,0.3-10.7,0.8-16.2,1.4c-35-20.2-72.6-38.5-114.4-54.2c-33.5-12.6-70.1-19.6-106-17
	c-38.9,2.8-79.9,18.5-99.3,54.4c-1.9,3.5-3.7,7.2-5.2,10.9c-11.7,28.5-10,61.6,4.9,88.6c3.5,6.4,7.6,12.2,12.3,17.5
	c4,2.1,8.1,4.3,12.2,6.5c17.8,9.5,35.7,19.5,53.6,29.7c12.3,2.1,25,2.4,37.3,0.6c18.8-2.8,41.1-10.2,51.4-27.5
	c17.3-29.2,6.4-51.5-9.8-55.2c-16.1-3.7-30.2,9.2-25.6,21.2c4.5,11.7,16.1,10.8,16.1,10.8c-6.3,27.7-74.2,42.4-101.5-4.6
	c-24.8-42.6-0.1-88.8,25.4-105c34.3-21.9,111.2-26.3,193.3,14.1c9.2,4.5,18.3,9.2,27.2,13.9c-51.2,11.6-100.6,38.7-112.6,81.7
	c-15.5,55.8,19.9,84.9,55.5,90c13.7,2,25.6,0.5,35.2-3.3c-15.7,15.2-28.4,34.1-37.1,56.7c-52.8-33.1-104.3-64.6-154.9-93.5
	c-25.2-4.4-49-17-65.9-36.2c-111.9-59.3-167.4-79.8-167.4-79.8s27.3-4.3,36.3-19.9C477.7,1978.3,465,1969.3,465,1969.3z
	 M489.1,1509.5c-9.3-4.2-18.5-9.1-27.3-15c-43.1-15.8-93.8-3.3-114.5,26.1c-13.3,18.8-16.8,41.1-12.8,60.2c-0.2-0.2-0.4-0.4-0.7-0.6
	c0,0-76.5-21.1-61.3-128.4c1.4-9.8,3.9-20.5,7.7-31.8c30.6,17.4,75.4,33.9,120.3,21.6c2.7-0.7,5.3-1.6,7.7-2.5
	c14.1,23.5,32.8,41.8,53.5,55.5c6.3,2.3,12.4,5.2,18.2,8.7C483.3,1505.2,486.3,1507.3,489.1,1509.5c29.1,13,59.8,18.2,85.9,16.7
	c1.1-0.1,2.3-0.1,3.4-0.2c12.7,47.2,40.7,90.4,76,124.8c-13.4-3.1-27.3-5.1-38.3-3.7c-20.4,2.6-33.2,11.9-38.8,23.5
	c-0.9-13.9-6.6-26.3-16.3-34.1c-13.6-10.9-27.5-12.9-37-12.4C531.6,1584.5,523.1,1536.4,489.1,1509.5z M387.1,1385.2
	c1.1,5,2.4,9.8,3.8,14.5c-31.2,4-63.6-5.9-88.1-27.6c18.3-30.1,45.6-61.1,83.9-88.6C379.1,1315.3,379.3,1350,387.1,1385.2z
	 M784.9,819.8c-6.1-3.2-14.5-4.6-22.9-3.3c19.8-11.4,39.5-23.1,58.9-34.8c6,8.5,10.2,18.2,12.3,29c9.8,49.7-19.2,69.6-37.7,71.6
	c-23.5,2.6-33.5-10.8-32-25.8c5.5,5.7,20.6,8.5,29.9,1.2C803.5,849.5,803.8,829.7,784.9,819.8z M615.1,845.9
	c4.6-49.7,32.4-88.2,88.8-99.2c29.9-5.8,57.4-3.4,79.4,5.8C727.9,785.3,670.3,818,615.1,845.9z M636.9,924.2
	c5,14.3,11.1,22.7,11.4,23.1c-0.7-0.3-22.2-11.8-30.6-52.3c4.2-2.2,8.6-4.5,13-6.9C630.9,897.8,633,912.9,636.9,924.2z
	 M687.6,1027.3c-16.9-8.3-33.9-15.9-51.7-22.3c-91.8-33-207.6-25-207.6-25c39.2-12.4,55.9-15.5,162.3-70.9
	C608.1,960.9,647.6,1002.3,687.6,1027.3z M687.4,910.5c-1.5-4.2-15.4-6-26.1-16.7c-6.2-6.2-10.4-11-13.3-14.9
	c18.5-9.9,39-20.9,61.7-33.2c9.4-5.1,18.7-10.2,27.9-15.4c-4.5,5.8-7.5,13.5-8.2,23.4c-2.7,40,48.7,71.1,90.7,48.8
	c38.7-20.5,47.9-60.1,35.9-98.7c29.2,41.9,75.8,63,122,65.8c-5.7,4.2-9.8,8.9-11.7,13.6c-8.8,21.3,0.8,46.4,33.2,46.4
	c29.5,0,32.4-20.6,32.4-20.6s-27.3-0.4-33.3-14.5c-8.3-19.2,16.3-29.5,39.6-18.1c23.3,11.4,34.7,56.1,14.6,95
	c-5.6,10.8-15,21.7-27.3,31.8c-8.3-9.9,4.6-26.7,0.4-29.7c-4.6-3.3-7.4-0.6-20.3-7.3c-13.7-7.1-33.4-2.6-50.2,10.6
	c-16.8,13.1-26.7,26.3-54.2,29.1c-27.5,2.9-37.2,0-37.2,0s14.8,15.1,35.7,21.4c20.8,6.3,23.4,5.7,23.4,5.7s-7.5,10.8-25.3,17.9h0
	c-2.8,0.2-5.5,0.3-8.3,0.3c-75.4,1.5-145-45.1-168.8-76.2C688.1,932.7,688.9,914.8,687.4,910.5z M1358.5,588.6
	c4.1,20.8,3.6,43.6-4.4,62.9c-15.5,37.2-60.7,31-60.7,31c4.4,34.6,50.5,29.7,50.5,29.7c-33.7,55.4-95.1,82-152.3,76.3
	c-47.4-4.8-53.8-43.4-42.6-59.9c13.8-20.4,51.1-3.3,51.1-6.2c0-2.9-5.9-26.7-25.6-33.9c-7.3-2.7-15-3.8-22.4-3
	c28.6-27,19.7-72-28.1-79.1c38.5-18.1,76.7-33.1,115-43.9c5.2,2.5,10.6,4.9,16.4,7C1293.2,583.5,1327.5,589,1358.5,588.6z
	 M1262.5,556.5c16.1-3.8,32.3-6.7,48.4-8.7c10.2-1.3,20.3-2.3,30.4-3.2c6,9.2,11.2,21,14.8,34
	C1319.2,578.2,1286.7,567.6,1262.5,556.5z M1682,665.9c0,0,16.5-15.2,41.5-12c0,0-5.4,9.5-6.2,22.9c0,0,69.6-31.8,146.5-13.1
	c0,0-70.3,8.3-76.1,78c0,0-31.5-40.2-93-50.6c0,0-61.9-68.2-212.1-64.4c0,0,103.1-48.5,238.8-23.8
	C1721.3,602.9,1677.2,623,1682,665.9z M1924.6,682.8c46,17.6,27.4,64.7,27.4,64.7h-12.6C1960.6,705.2,1925.4,683.3,1924.6,682.8z
	 M1930.5,712.4c3.9,15.6-6,33-12.6,34.1c0,0-2.8-9-10.3-11.4c-7.4-2.4-18.7,3.5-16.2,17.1c2.8,14.8,26.3,27.1,44.6,11
	c-0.1,0.4-2.1,6.5-7.3,9.6c0,0,21.2,6.8,38.9,0.1c0,0-19.8,45.8-71.6,45.8c-51.8,0-86.8-40.4-76.6-85.5
	c10.2-45.1,53.3-52.4,71.7-49.9C1909.6,685.7,1926.7,696.8,1930.5,712.4z M1807.7,804.6c-0.9-0.4-29.6-13.2-51.6-36.9
	c-22.4-24.1-31.5-47-58.5-63.4c0,0,54.3,9.1,77.9,39.1C1787.8,763.8,1787.8,785.2,1807.7,804.6z M1458.4,613.7
	c-42,19.5-64.4,46.5-75.3,73.1c0.9-3.9,1.7-8,2.4-12.1c5.6-34.3,1.7-64.3-4.7-87.4c37.8-3.9,69.9-16.4,96.6-31.6
	c7-4,13-7.4,18.3-10.5c108,9.1,186.7,32.5,189.9,33.5C1681.5,578.3,1561.2,565.8,1458.4,613.7z M1377.9,577.8
	c-5.3-16.3-11.5-28.2-15.2-34.7c43.5-2.5,85.5-1.5,124.1,1.4C1463.1,558,1426.4,573.4,1377.9,577.8z M1376.6,708.5
	c-5.5,27.5-0.5,52.1,5.3,64.5c19.7,42.5,53.5,51.9,76.8,50.1c-4.4,2.5-8.7,5.5-12.6,8.9c-7.6,6.5-15.4,18.2-20.2,31.5
	c0.5-22.1-10.2-45.8-36.4-64.5c-17.4-12.4-43-18.3-69.2-17.1C1345.2,764,1364.9,739.5,1376.6,708.5z M1328.6,849.4
	c-22.3,1.6-29.5,28-14.6,50.9c-13.6-1.2-30.5,6.5-33.8,35.2c-4.1,35.5,15.5,54.8,17.8,56.9c-21.5-18.2-40.6-38.4-51.5-75.2
	c-8.6-29-3.6-80,36.3-105.7c41.7-26.9,101.1-12.5,117.2,20.5c16.4,33.7-0.3,68-26,75.4c-25.7,7.4-45.4-7.4-40.3-21.8
	c5.1-14.4,22.2-12.8,22.2-12.8S1354.5,847.5,1328.6,849.4z M1314,1023.6c22.7,14.4,48.4,26.8,77.2,36.1
	c-22.6,3.2-50.1,8.6-82.8,17.8c1.8-1.6,3.4-3.4,4.8-5.3C1320.8,1062.2,1325,1039,1314,1023.6z M1155.9,1413.2
	c9.5,13.9,20.9,27.9,39.2,27.3c18.3-0.7,18.2-28,18.2-28s18,22.9,68.7,42.2c-51.9-1.6-96.4,9.3-135.6,28.9
	c-8.4,4.2-16.4,9.3-23.8,15c1.5-2,2.8-4.3,3.9-7c6-14.3-1-29.8-10.8-40.5c-11.1-12.1-26.6-20.2-43.2-23.9c15.9-3,16.6-17,15.3-21.3
	c-1.5-5.5-5.9-9.4-13.2-10.7c-4.8-0.8-8.2,1-10.4,8.5c-1.7,4.2-15.5-1.9-12.7-15.5c2.7-13.5,16.6-31.3,50.6-32.9
	c34-1.7,63.5,19.3,78.3,38.7c0,0-22.7-5.7-50.7,1.2C1129.8,1395.1,1146.4,1399.3,1155.9,1413.2z M1287.4,2008.7
	c8.1,14.8,18.5,28.6,29.9,41.1c-6.9-1.2-13.7-2.5-20.5-4c-47.8-56.6-71-134.5-60.9-211.5c0,0,0,0,0,0c0.5-1.5,16.7-46.5,46.4-57.5
	C1241.2,1849.6,1254.9,1949,1287.4,2008.7z M1530,1788.8c-22.7,11-36.1,33.9-42.6,57.7c-3.3-21.3-17.1-40.9-47.3-44.5
	c-3.2-0.4-6.6-0.6-10-0.6c3.2-3.6,5.7-8.5,6.8-14.9c4.9-27.5-14.2-50.9-67.7-53.9c22.5-15.8,45.8-24.4,64.2-28.2
	c56.1-11.5,87.9,8.5,89.5,32c1.6,23.5-27.1,34.6-27.1,34.6C1502.4,1780.5,1516.5,1788.4,1530,1788.8z M1836.2,2013.9
	c-4,7.4-8.5,14.7-13.7,21.8c-34.3,22.7-105.6,59.9-187.4,45.4c-29.1-5.2-51.2-16.4-68-30.3c32.3-10.1,97.3-33.2,139.9-66.3
	c8.9,3,16.4,4.9,16.4,4.9l-17.6,17.3C1768.9,2047.5,1819,2024.5,1836.2,2013.9z M1902.7,2182.7c25.6,6.3,44.5,20.1,56.3,31.1
	c-12.8,19.9-31.4,25.9-31.4,25.9c-4.2-6.2-22.5-21.8-39.2-13.9c-16.7,7.9-15.2,29.7-4.6,38.1c10.6,8.4,35.7,5,35.7,5
	c-2.3,24.9-20.4,55.3-55.5,48.4c-55.4-9.8-65.8-70.2-52.6-96.9C1824.5,2193.8,1856.5,2171.3,1902.7,2182.7z M1860.5,2132
	c0.2-13,11.5-23.3,26.3-24.4c14.8-1.1,46.5,7,63.4,29.2c13.7,17.9,21.4,37.4,17.1,57.1c-12.2-13-28.9-23.6-43.3-30.8
	c-0.3-0.1-0.5-0.3-0.8-0.4c-17.5-8.6-37.5-12.3-56.9-10.9C1863.5,2146.2,1860.4,2138.8,1860.5,2132z M1946.7,2281.9
	c-11.6,30.3-33,38.7-33.7,39c17.6-14.2,24.9-42.2,24.9-42.2L1946.7,2281.9z M1735.8,2198.6c-26.7,33.4-53.1,70.7-84.4,98.8
	c-35.5,0.7-78.3-14.1-90.6-39.5c-13.5-27.9,6.3-49,22.3-49c0.7,0,1.3,0,2,0.1c6.7,0.4,12.8,3.1,15.7,9.5c2.8,6.2,1.4,13.9,7.9,17.9
	c5.9,3.6,14,1.8,17.4-4.3c3-5.3,2.3-11.9,0.7-17.5c-2.4-8.4-7.5-15.9-14.8-20.7c-3-2-6.3-3.5-9.7-4.5c94.5-9,176.2-38.7,228.7-84
	c-1.5,3.3-2.4,7-2.3,11.2c0.1,12,5.6,22.9,10.9,30.9C1810.8,2146.2,1770.1,2155.6,1735.8,2198.6z M1795.8,2188.6
	c-0.2,0.3-0.5,0.6-0.7,0.9c-10.6,14.6-14.9,31.6-17.8,48.9c-22.9,28.2-54.6,43.8-83.1,51.8C1735.2,2243.8,1761.4,2202,1795.8,2188.6
	z M1369.9,2296.2c-21.4-21.5-38.2-42.2-52-57.5c-16.3-18.1-33.1-31.5-50.4-41c39.4-1.6,65.8-21,78.7-33.1
	c20.2,5.8,41.1,10.8,62.7,14.9c3.9,0.7,7.7,1.4,11.6,2.1c-18.7,3.2-38.5,12.4-52.5,33.6C1352.9,2238.5,1353.8,2268.6,1369.9,2296.2z
	 M741.9,1635.6c-51.3-33.3-56.2-93.8-49.4-125.8c3.8-17.8,7.9-23.7,5.9-33.4c-1-4.8-5.1-8.4-10-8.5c-17.6-0.4-31.4,20.1-31.2,50.9
	c0.2,35.2,10.1,65.3,10.1,65.3c-22.2-16.8-38.4-40.3-48.1-65.9c25.8-8.9,41.5-24.1,49.5-42.1c0,0,0,0,0,0
	c17.2-20.3,24.5-35.3,48.7-54.8c27.7-22.2,72.2-10.1,83.3,7.1c11.1,17.2-6.1,48.4-6.1,48.4h20.3c19.1,86.6,107.8,109.4,153.5,113.8
	c44.7,4.3,82.1-6.9,99.8-13.7h0c1.5-0.6,2.8-1.1,4-1.6c-0.1,0.7-0.3,1.5-0.4,2.2c-3,17.5-0.8,34.8,8.2,49.6
	c3.8,6.4,8,12.1,12.4,17.3c-44.3,21.2-77.6,32.2-77.6,32.2c23.2-27-1.5-59.9-41.1-56.3c-39.6,3.5-60.5,29.8-102.5,46.1
	c-42,16.3-85.7-2.3-88.6-21.6c-2.9-19.2,16-26.4,16-26.4C753.3,1586.5,741.9,1635.6,741.9,1635.6z M804.4,1250.9
	c31,21.9,73.7,36.9,125.4,41.4c-25.9,7.7-50.3,22.1-70.1,41.4c-16.8-5.3-33.6-9.4-49.5-12.2c-19.4-3.5-39.2-5.6-59.1-6
	C788.5,1300.8,803.3,1272.4,804.4,1250.9z M790.6,1175.6c66.5,13.4,115,26.5,195.3,31.5c96.7,6,149.4-10.3,150.8-10.7
	c-1.7,0.9-73.3,38.6-221.3,16.7c-45.7-6.8-83.5-14.8-118.4-21.8C794.3,1186.3,792.2,1181,790.6,1175.6z M941.7,1477.8
	c7.8,7.7,28,14.5,40.3,4.7c-1.3,12.6,0.5,25.8,4.6,37.4c8.2,23.4,26,38.2,47.3,47.2c-144.1,28.1-203.4-93.3-176.7-169.4
	c5.5-15.7,12.7-28.8,21-39.6c65.4,28.3,77.9,72.8,80,82.6c2.3,10.7-3.9,5.6-14.2,6.6C932.1,1448.6,927.6,1463.8,941.7,1477.8z
	 M1086.3,1509c1.6,2.2,14.5,4.3,25.9-1.6c-17.8,16.5-31,36.9-37.4,57.7c-32.3-6.1-52.3-23.6-62.8-38.8
	c-13.7-19.9-11.6-48.6,4.5-66.5c23.4-25.9,78-26,89.3,11.9C1112.5,1493.9,1083.9,1505.7,1086.3,1509z M847,1347.5
	c-16.2,19.7-27.9,43.1-33,68.8c-11.3-15.6-33.4-26.8-61.8-25.3c-36.5,1.9-60.4,23.6-78.1,46.6c-4.2-26.2-26.7-42.2-49.8-41.8
	c6.7-11,15.7-20.4,26.8-27.3C710.1,1332.2,802.6,1336.9,847,1347.5z M639.5,1454.3c-2,13.7-11.6,26.6-28.5,34.8
	c-5-26.7-3.4-53.8,5.2-76.5C626.7,1418.8,642.6,1432.2,639.5,1454.3z M1089.8,1944.4c-44.2-56.8-19.6-121.3,8.5-134.9
	c28.1-13.6,71.8-4.3,79.2,22.6c7.4,26.9-4.2,45.8-21.3,49.2c-17.2,3.5-20.8-13.2-20.8-13.2c10.2,4.3,25.9,5,22.8-12.2
	c-3.1-17.2-44.9-29.2-46.4,5.2c-1.4,34.3,35,41.3,52.1,37.7c10.1-2.1,21-9.8,26.6-24.2c1.5,37.9,5.5,91.7,33.6,137.7
	c3.6,6,7.5,11.7,11.5,17.3C1170.4,2008.7,1116.1,1978.2,1089.8,1944.4z M1247.1,2044.9c22,27.1,45.8,48.2,60.2,60
	c-12.9-4.2-25.9-8.8-39.2-13.8c-14.9-5.6-29.1-11.3-42.9-17.1c-56-34.2-93.3-71.4-93.3-71.4
	C1171.4,2021.3,1210.1,2035,1247.1,2044.9z M1068.6,1806c-43,42-21,110.6-21,110.6c-71.8-78-24.2-154-24.2-154
	c15.3,3,20.7,10.3,24.8,17.6c4.1,7.3,8.8,11.9,17.3,11.9c8.5,0,18.1-6.8,17.9-17.4c-0.2-10.6-8.7-17.1-19.4-21.5
	c-10.7-4.3-16.4-14-16.4-14c15.2-7.5,54.5-15.1,86.4,1.4c31.3,16.2,45.3,48.5,51.3,77.9C1164.2,1787.7,1105.3,1770.2,1068.6,1806z
	 M981,1760.2c-0.6,1.2-32,61.1,2,127.9c21.5,42.3,54.2,78.2,75.6,99.1c-23.9-14.8-46.4-29.6-68.2-44.2c-13.7-18-28.9-41.7-40.1-70.1
	C923.7,1805.8,952.6,1769.9,981,1760.2z M1072.9,2060.3c31.5,34.7,50.4,84.4,106.1,114.8c-53-22.9-110.4-68.1-166.1-110.6
	c-27.2-20.7-54.9-40.4-84.4-58.6C997.2,2000.7,1051,2036.2,1072.9,2060.3z M1126.5,2102.7c-13.6-15-22.9-27.5-30.7-38.9
	c-1-1.6-2.1-3.2-3.2-4.8c0-0.1-0.1-0.1-0.1-0.2c-3.7-5.6-7.2-10.9-10.7-16.1c80.7,46.4,154.3,86.3,236.6,113.4
	c-11.7,12.2-38.2,29.7-78.3,21.7C1194.5,2168.8,1159.8,2139.4,1126.5,2102.7z M1483.4,1869.8c-1,12.3-0.2,24.7,2.6,36.6
	c2.7,11.5,7.8,22.1,14.4,31.7c-9.3,10.6-29.4,39-22.1,79.4c2.6,14.4,7.6,26.4,13.5,36.2c-12.8,1.9-26.1,3.3-39.7,4.1
	c-59.1-43.4-80.1-116.9-78.4-155.2c2.3-51.7,36.1-74.6,60.2-72.2c24,2.4,18.1,41.3,18.1,41.3
	C1464.9,1878.5,1477,1877.5,1483.4,1869.8z M1439.2,2068.3c1.7,1,3.5,2,5.2,3c89.5,50,208.8,54.6,208.8,54.6
	c-117.4,16.9-209.7-11.7-271.7-58.9C1402.2,2068.3,1421.6,2068.6,1439.2,2068.3z M1404.5,2119.3c-37.6-12.4-70.2-33.7-96.5-61
	c6.9,1.2,13.8,2.3,20.6,3.2C1363.8,2096.4,1402.7,2118.3,1404.5,2119.3z M1399.7,2239.7c10-29,46.4-38.3,52.9-27.2
	c6.9,11.9,22.3,21.7,34.3,10.9c10-9,7.1-24.5-8-34.1c27.5,2.5,54.6,3.3,81,2.6c-40.1,15.8-36.8,67.9-7.3,90.9
	c19,14.9,43.5,28.1,79.1,30.4c-12.1,8.6-24.9,15.6-38.7,20.5c-60.2,21.3-123,15.4-161.5-6.1
	C1392.9,2306.2,1389.7,2268.7,1399.7,2239.7z M1555.5,2039.9c-28.1-29.6-37.2-66.3-40-84c10.7,10.4,23.1,19,35.9,25.6
	c27.7,14.2,66.5,18.1,98.5,17.3C1622.5,2015.3,1590.9,2029.5,1555.5,2039.9z M1527.9,2089.5c-23.6-4-44.1-11.9-61.7-22.3
	c12.1-0.7,23.1-1.7,32.9-2.8C1512.9,2082.1,1527.9,2089.5,1527.9,2089.5z M1419.1,1777.5c4.5,12.8-11.8,22.4-27.1,14.9l4,16.3
	c-20.2,9-38.4,27.1-46.9,58.4c-13.5,49.9,2.9,139,75.7,191.8c-15.3,0.2-31-0.3-47.2-1.5c-3-0.2-5.9-0.5-8.9-0.7
	c-40.9-35.5-66.8-84.3-74.1-136.5c10.4-1.6,20.7-7.4,24.3-27.6c4.5-25.4,13.6-36,27.7-41.3c0,0-7.6-9.6-20.7-8.6
	c-13.1,1-22.2,13.6-25.4,21.4c-1.5,3.6-4.5,6.8-7.4,9.2c0.7-9.3,2-18.6,4-27.9c1.5-7.3,3.3-14.2,5.4-20.8c0,0,0,0,0,0
	c0.5-1.1,17.2-35.8,52.1-54.5C1390,1751,1414.6,1764.7,1419.1,1777.5z M1203.5,1770c-34.5-74.9-132.7-70.7-132.7-70.7
	s19.9-12.7,50.2-30.9c23.6,14,52,20,84.1,22.8c19.1,1.7,38.4-3.3,55.4-10.5C1220.1,1722.7,1203.5,1770,1203.5,1770z M1177.3,1670
	c-13.6-2.6-25.9-7.3-36.4-13.5c14.5-8.6,30.4-18,47.1-27.5c64.2-36.7,126.6-60,213.1-58.2c86.6,1.8,118.9,26.4,118.9,26.4
	c-106.2,0.6-159,11.3-209.8,43.6l-15.2-19.8C1284,1660,1238.1,1681.6,1177.3,1670z M1375.3,1535.8c-90.2,4.2-151.8,33.5-222.3,75.9
	c-13,7.8-25.9,15-38.4,21.4c-11.6-15.7-16.5-34.5-12.5-53.7c26.8,0.1,53.6-4.2,79.5-10.9c59-15.2,114.7-42.9,176.4-46.1
	c27.5-1.4,55.4,0.1,82.4,5.7c43.8,9,63.1,27,63.9,27.7C1503.3,1555.2,1464.1,1531.6,1375.3,1535.8z M1481.6,1527.8
	c-27.8-8.8-56.5-14.5-85.6-16.9c-2.5-0.2-5.1-0.4-7.6-0.6c-40.4-2.5-80.5,2.1-119.5,12.4c-38,10-75.2,24.3-112.6,35.5
	c-18.8,5.6-35.5,8.4-50.4,9c1.4-3.5,3.1-6.9,5.1-10.3c28.4-48.3,109.2-85.2,216.8-75.9c107.6,9.4,168.4,51.7,168.4,51.7
	C1491.4,1531,1486.5,1529.3,1481.6,1527.8z M1049.8,1425c-20.9,0.6-41.1,8.4-54.6,24.6c-1.1,1.3-2.1,2.6-3,4
	c-0.3-10.1-3.4-20.2-8.1-29.3c-18.9-36.8-54.8-62.3-94.2-79.3c30.8-30.3,70.4-37,93.1-36.4c32.4,0.9,47.1,9.9,54.1,20.6
	c4.8,7.4,10.6,14.6,16.3,18.3C1015.8,1366,1023.1,1414,1049.8,1425z M814.6,1216.5c50.1,10.3,101.4,20.8,166.5,19.5
	c162.8-3.3,218.1-50.7,220.2-52.6c-1.5,2.1-36.7,48.3-163.4,78.8C943.8,1284.8,857.5,1262.9,814.6,1216.5z M996,1194.8
	c-78.9-7.4-146.4-23.7-209.2-37.6c-0.1-0.9-0.2-1.9-0.3-2.8c-1.4-17.2,1.3-31.2,6.7-42.5c59.3,26.9,126.2,54,203.1,65.3
	c134.9,19.8,264.2-52.1,266-53.1C1261.1,1125.4,1173.6,1211.4,996,1194.8z M1078.8,898.5c0,0,12.8,11.1,32.2,44.9
	c3.3,12.2,6.6,29.3,5.4,45.8c-1.4,19.1-12.1,36.8-36.8,35.6c0,0,11.6,19.3,38.3,18c22.3-1,30.9-17.7,31.9-32.2
	c17.9,26.2,39.6,49.6,68.1,64.7c18.3,9.8,35.1,14.2,49.5,14.7c-56.2,20-157.7,67.6-292.8,47.4c4.7-16.6,2-43-40.9-65.4
	c-3.5-1.8-7.2-3.5-11-5c31.4-4.5,62.5-13.4,90.8-28.6C1110.7,986.6,1078.8,898.5,1078.8,898.5z M926.5,1128
	c-44.7-10.7-81.9-24.1-114.7-38.5c31-23.6,82.4-20.2,108.1-6.6C947.5,1097.6,933.6,1119.4,926.5,1128z M1381.8,1111.7
	c-1.6,7.3-3,14.7-4.3,22.3c-3.1,18.5-4.9,36.7-5.5,54.5c-28.1-38.4-79.7-37.8-116.5-17.1C1311.3,1134.4,1365.1,1116.7,1381.8,1111.7
	z M1127.5,635.1c6,22.2-13.8,47.4-49.1,51c-25.7,2.6-47.4-10-60.9-23.5c28.2-16.2,56.2-31.5,84.1-45.4
	C1112,617.8,1123.9,621.5,1127.5,635.1z M1120.9,704.2c-5.1,7.3-8.8,16.8-10.7,28.9c-0.6,3.7-0.8,7.5-0.8,11.2
	c-4.9-12.8-14.2-23.8-29.8-30.2C1094.1,713.2,1108,709.6,1120.9,704.2z M1112.5,783.8c0.9-5.7,1.3-11.4,1.1-17.1
	c11.8,31.7,48.6,57.4,113.4,49.6c4.1-0.5,8.1-1.1,12.1-1.8c-1.9,1.9-3.6,3.9-5.3,6c-35,44.1-17,113.8,18.2,151.7
	c12.7,13.6,27,26.5,43.1,38.4c-18.2-5.4-36.9,2.1-36.2,18.1c0.6,14.8,21.2,18.9,30.3,6.4c0,0,9.5,26.1-13.3,34.2
	c-26.9,9.6-58.7-3-95.8-48.4c-10.4-12.7-19.3-26.7-27.6-41.1c5.4-3.4,12.9-3.2,22.9,4.8c11.9,9.4,35.4,12.2,35.4,12.2
	s-19.1-10.2-26.6-31.3c-7.5-21-12.2-45.6-32.1-46.5c-14.2-0.6-22.5,9.1-26.1,14.7c-13.7-22.5-28.9-43.3-50.1-58.8
	c-9.6-7-19.4-11.8-29-14.7C1094.7,842.9,1109,806.9,1112.5,783.8z M805.9,1066.1c-7.5,3-14.6,6.6-21.1,11
	c-22.7-10.9-43.5-22-63.6-32.6C742.8,1053.1,772.4,1061.2,805.9,1066.1z M748,1244.3c7.6,4.9,17.1,1.2,17.1,1.2s4.6,29.1-29.2,41
	c-36.9,13-79,11-94.9-17.5c-14.9-26.7-5.7-52.1,14.9-71.1c39.2-1.2,73.5,2.7,106.6,8.5c0.3,0.1,0.7,0.1,1,0.2
	c-0.3,0-0.6,0.1-0.9,0.1c-2.2,0.3-4.3,0.8-6.4,1.5C736.8,1215,737.9,1237.7,748,1244.3z M692.6,1175.4c12.4-5.1,24.7-8.6,35.6-11
	c0,0,0,0,0,0c3.6,0.6,7.2,1.2,10.8,1.8c3.4,0.6,6.7,1.1,9.9,1.7c0.8,5.1,1.9,10.1,3.4,15.1C732.5,1179.5,712.9,1176.8,692.6,1175.4z
	 M656,1174.2L656,1174.2c-32.1,0.3-67.2,3.9-108.6,12.5c-35.5,7.4-68.1,18.5-97.5,31.6c12.2-14.2,27-26.4,44.6-35.7
	c61.8-32.6,124.1-33.5,199.9-23.3C682.8,1162.2,669.3,1166.9,656,1174.2z M544.4,1213.7c29-7.1,55.4-11.5,79.9-13.9
	c-2.3,2.8-4.6,5.7-6.7,8.8c-29.4,43.9-2.7,103.6,58.1,114.8c-26.7,7.2-51,20.3-69.2,42.6c-28.4,34.9-39.1,80.7-34.7,124.9
	c0.2,2.3,0.5,4.6,0.8,6.8c-14.3,0.6-30.9-0.9-49.7-5.4c-43.2-10.3-73.3-35.9-92-66.7c25.8-22.9,21.8-57.1,21.8-57.1
	c-11,11.1-23.4,19.2-36.7,24.5c-3.7-11.2-6.1-22.5-7.4-33.7c-3.6-32.9,1.3-68.2,15.2-99.6C457.4,1241.2,497.2,1225.3,544.4,1213.7z
	 M574.7,1692.8c4.6,17.3,29.3,18.5,29.3,18.5s-8.1-29.8,23.4-38.8c16-4.6,35.3-3.4,50.3-1.1c6,4.8,12.2,9.4,18.5,13.7
	c72,49,162.9,60.9,248.1,60.8c0,0-28.7,16.4-30.8,70.3c-1.5,38.6,24,80.7,38.7,101.5c-59.6-39.5-118.5-76.1-193.8-104.9
	c-133.2-51-259.2-56-259.2-56s28.1-7.5,51.7-27.7C563.3,1718.4,571,1705.7,574.7,1692.8z M1863.2,2401.1
	c42.5-27.3,81.2-48,109.8-89.1c0,0,3.8,40.7-38.3,78.9c-42.1,38.2-85.9,44.4-147,78.9C1787.7,2469.8,1820.7,2428.4,1863.2,2401.1z
	 M1694.9,1959.9c-9.2-11-31.5-42.6-25.5-84.6c6.4-44.4,43.9-62.2,55.4-66.7C1741.1,1861,1725.2,1920.2,1694.9,1959.9z
	 M1490.7,1517.6c-30.3-16.6-78-39.5-129.9-51.9c-18.9-4.5-37-7.6-54.3-9.4c-14.1-5.1-41.4-15.6-62.1-28.8
	c-29.2-18.6-56.6-56.5-44.6-91.9c0,0,3.3-12.4-16.4-10.1c-19.7,2.3-21.1,14.2-18,23.6c3.1,9.4,13,26.4,13,26.4s-45.4-42-101.3-34.8
	c7.8-8.9-1.1-18.2-5.4-23.4c-3.1-3.8-16.2-19.8-48.9-27.5c97.5-13.9,155.2-61.8,216.1-106.6c-0.2,0.1-0.3,0.3-0.5,0.5
	c-47.6,41.9-61.5,155.9,18.9,226.3c69.7,61.1,174.8,62.3,201.6,61.5C1469.3,1487.6,1480,1503.1,1490.7,1517.6z M1290.5,1351.3
	c-27.1,6-26.3,41.5-26.3,41.5c-31.9-34.4-44.3-84.4-35.2-137.2c9.1-52.8,56.9-77.6,90.5-75.9c31.2,1.6,50.3,18.9,52.9,41.7
	c0.2,1.7,0.3,3.5,0.3,5.3c0,0,0,0,0,0c0,25.4-20.4,40.7-33.3,38c-12.8-2.7-13-12-9.6-16.5c3.4-4.4,1.3-11.7-3.5-15.5
	c-8-6.3-24.3-1.8-21.3,18.1c3,19.9,22.2,34.5,47.4,31.5c10.7-1.3,19-7.1,25-13.2c11.4,69.1,38.9,131.8,71.7,186.4
	C1304.1,1467.2,1296.6,1351.7,1290.5,1351.3z M1323.7,1004.6c-9.7-14.6-16.1-54.4-8.8-72.9c4.2-10.7,9.9-14.3,15-15.1
	c23,15.3,58.3,13.1,78.7-9.8c5.3-6,9.6-12.8,12.5-20.2c-0.7,22.7,11.6,43.7,51.6,46.6c-28.4,29.4-53.6,67.1-71.9,114.7
	C1367.1,1035.4,1332.4,1017.7,1323.7,1004.6z M1452.7,900.3c-8.6-14.9,6.5-64.5,60-67.4c41.8-2.3,68.3,14.6,79.6,24
	c-36.2,12.5-74.2,33.3-108.4,65.2c1.5-6.2,2.2-14.2-3.4-15.8C1471.2,903.5,1461.3,915.2,1452.7,900.3z M1561.1,820
	c-22.4-8.9-51.1-12.9-77.2-6.8c12.5-14,3.3-27.7,1.8-30.1c-1-1.5-3.4,22.2-31.2,18.9c-27.6-3.4-57.5-47.9-29.5-99.7
	c28-51.8,109.5-68.5,186.5-37.2c17.8,7.3,33.5,16.9,47.5,27.8c-63.6,7.7-108.3,37.9-113.9,72.7c-6.2,38.9,20,57.9,46.1,58.8
	c26.1,0.9,40.1-20.1,41.4-28.5c1.3-8.4-11-17.5-15-11.1c-4,6.4-1.7,26.2-26.9,23.2c-25.2-3-43.4-48.8,0-78.8
	c30-20.8,62.3-25.8,79.4-26.9c39.6,34.9,64.4,78.9,86.1,101.6c29.1,30.5,46.8,35.2,48.8,35.6c-4.3-0.6-88.7-12.1-180.7,8.3
	c-4.3,1-8.6,2-13,3.2C1604.1,844.4,1586.5,830.2,1561.1,820z M1904.7,844.8c0,0,28.4,1.6,47.4-12.1c19.1-13.7,22.7-27,22.7-27
	s-1.6,32.6-17,45.8C1942.4,864.7,1920.6,875.3,1904.7,844.8z M1921.3,635c-55.5-27.6-93.4-62.9-126.2-110.8
	c0.8,0.5,27.4,16.7,73.3,37.5c46.6,21.1,110.2,46.6,120.9,129.5C1989.3,691.2,1976.7,662.5,1921.3,635z M1990.8,425.2
	c0.2-0.9,0.5-1.4,0.5-1.7C1991.3,423.8,1991.1,424.4,1990.8,425.2z M1989.5,354.4c0,0,7.7,46.8-8.2,69.9c-14.7,21.3-59,20-60-11.8
	c0,0,52.7,10.1,47.8-51.4C1969,361.1,1983.7,366.1,1989.5,354.4z M1794.6,325.7c79.7-87.9,175.7-19.7,175.7-19.7
	s-17.7,9.9-16.4,26.9c0,0-71.6-39.5-118.2,13.1c-46.2,52.1-9.9,130.1,9.9,152.7c0,0-10.5-5.4-20.8-18.9
	c-10.2-13.5-14.4-16.7-28.4-22.9c-14-6.3-20.5-15.6-22.8-21.6c0,0-12.8,10.8-13.5,28.8C1760.1,464.1,1742.1,383.6,1794.6,325.7z
	 M1421.9,367.1c65-27.8,132.5,14.2,132.5,14.2c-40.8,5.3-45.3,34.5-45.3,34.5C1651,427.7,1770,573.6,1770,573.6
	c-90.6-35.5-142.2-49.5-218.4-57.7c-51.1-5.5-74.7,1.1-78.7-11.5c-4-12.6,5.7-20.8,5.7-20.8s-1.9-29.5-29-29.6
	c-28.5-0.1-30.2,34.3-30.2,34.3C1358.4,468.6,1359.3,393.8,1421.9,367.1z M1286.4,320.1c57.9-1.8,71.2,48.9,60.7,69.2
	c-10.5,20.2-36.3,21.6-47.4,13.4c-11.9-8.8-8.1-19.8-8.1-19.8c6.9,6,24.4,3.8,25-9.9c0.6-13.5-14.4-23.7-30.7-13.7
	c-16.3,10.1-21,45.3,8.3,58.5c26.3,11.9,54.2-5.1,54.2-5.1c-11.4,74,33.4,98.7,33.4,98.7s-18.3,0.9-35.9,1.2
	c0,0-54.2-74.4-179.2-83.2C1166.8,429.2,1166.8,323.8,1286.4,320.1z M1316.2,514.5c-54.9,6.4-97.8,16.2-97.8,16.2
	c-47.7-39.5-51.7-81.4-51.7-81.4C1268.5,447.6,1316.2,514.5,1316.2,514.5z M1000,541.7c19.8-33.2,62.3-22.3,73.2-25.1
	c10.9-2.7,14-10.9,31.3-37.1c17.4-26.2,43.6-30.3,43.6-30.3s9.6,48.7,52,87.1c-35.4,11.5-117.4,40.5-203.7,87.8
	C993,611.5,983.4,569.6,1000,541.7z M1008.1,693.3c12.5,8.7,25.2,14.4,37.9,17.6c-19.3,5.6-28.1,25-23.5,40.4
	c9.3,31.3,48.9,22.6,48.9,22.6s-4.2,64.7-79.8,68.5c-64.9,3.3-108.3-37.2-123.9-89.3c41.5-25.5,82.1-50.7,122.3-74.5
	C995.6,683.8,1001.6,688.7,1008.1,693.3z M910.6,566.2c16.2,18.7,29.2,49.1,50,78.6c-0.8,0.5-1.7,1-2.5,1.5
	c-29.5,18-62.4,38.3-97.4,59.6C859,655.6,872.6,607.9,910.6,566.2z M718.3,572.1c14.2-18.7,31-33.2,51.5-41.4
	c26.9-10.8,74.3-13.5,114.5,12.6c-8.6,10-26.5,33.2-40.3,66.4c-1.8-6.9-4.8-13.4-8.7-19.1c-18.7-27.3-55.1-26-66.8-8.8
	c-9.8,14.5-4.1,33,9.6,37.4c13.4,4.2,21.5-3.8,21.5-3.8c8,7.1,12.4,38.4-19.7,50.4c-29.8,11.1-66.3-8.5-70.1-49.9
	C708.3,598.7,712.5,583.8,718.3,572.1z M679.7,644.7c2.1-5.4,4.4-10.8,6.6-16c0.7,3.4,1.7,6.9,2.9,10.5
	C710.5,700,779,706.5,813,685.3c5.5-3.4,10.2-7.2,14.2-11.4c-1.2,10.5-1.7,21.6-1.3,33c0.2,6.6,0.7,13,1.5,19.2
	c-7.6,4.6-15.3,9.2-23,13.8c-29.1-17.5-66.2-26.3-100.9-23.9c-28.7,2-56.5,10.3-78.4,27.9C651.9,709.8,667,676.9,679.7,644.7z
	 M509.9,598.8c22.6,3.3,27.9,23.5,27.9,23.5c15.8-10.9,16.5-27.2,16.5-27.2c9.4,8.7,24.1,14.1,45.9,8.5
	c16.4-4.2,32.9-14.9,49.2-26.3c-1.9,2.5-4,5.2-6.2,8.1c-17.7,22.2-47.2,59-93,104.1c-2.1,2.1-4.4,4.2-6.6,6.3
	c-21.4-2.3-57.2-12.3-68.3-43.6C462.7,616.4,487.3,595.5,509.9,598.8z M446.9,638.2c0,0,1.9,25,25.9,44.2c21,16.8,45,21.4,63.5,20
	c-34.9,30.2-80.1,55.9-122,62.1c-50.1,7.4-114.2-12.1-116.3-65.7c-2.1-53.7,37.5-60.8,37.5-60.8c2.2,12.8,14.3,22.5,28.4,21.3
	c14.3-1.2,20.6-10.7,20.8-21.7C395.8,658.8,431.9,663.7,446.9,638.2z M288.8,598c33-35,63.7-32.3,89-26.7
	c25.2,5.6,38.7,18.2,40.7,23.8c2.4,6.9-8.3,9.9-14,2.6c0,0-23.6,1.8-23,26.1c-8.2-15.9-32-31.1-69.5-19.4
	c-22.2,6.9-41.1,26.1-51.3,50.3C263.4,639.1,270.5,617.4,288.8,598z M252.6,698.6c0.4,11.3,2.8,22.7,7.5,33.8
	c21.1,49.4,118.5,97.3,223.8,39c110.5-61.2,188.3-198.6,188.3-198.6s-13.7,103.4-100.7,174.2c-89.6,73-172.2,76.9-230,63.6
	C263,792.5,249.2,739.4,252.6,698.6z M282.1,896.5c-16.9-22.8-11.9-43.8-6.4-54.8c0,0,2.8,25.3,52.8,32.9
	c52.9,8.1,144.2,2.3,227-62.4c17.6-13.7,32.6-27.3,45.5-40.6c-12.3,20.1-19.6,46.6-19.7,80.7c0,3.4,0.1,6.8,0.3,10.1
	c-29.7,14.2-58.3,26.6-85,36.6C362.1,949.1,298.9,919.3,282.1,896.5z M307.5,1140.9c31.6-68.6,98.1-95.6,98.1-95.6
	c1.6,11.5-7.4,14.5-6,41.2c1.4,26.7,22,36.1,22,36.1c2.8-50.4,56.7-51.8,80.3-61.6c23.6-9.8,18.7-31.3,18.7-31.3
	s61.8-3.1,148.6,27.8c29.1,10.3,60.3,25,93.9,40.7c-7.2,10.1-12.2,22.1-14.3,36.3c-0.7,4.9-1.1,9.7-1.2,14.5
	c-64.6-13.1-125.6-21-190.8-10.4c-77.7,12.7-129.2,52-155.3,104c-0.1,0.3-0.1,0.6-0.2,0.8c-0.1,0.1-0.2,0.1-0.3,0.2
	c0.2-0.3,0.3-0.7,0.5-1c4.6-23-10-44.7-30.4-45.1c-22.4-0.4-30.9,20.3-23.3,30.8c6,8.3,18,6,18,6s-6.4,31.6-39.4,19.8
	C297.1,1243.5,278.3,1204.1,307.5,1140.9z M266.7,1202.8c0,0,1.7,37.1,33.8,63.6c13.2,10.9,28.4,15.8,42.8,16.2
	c-28.6,22.2-50.3,43.7-64.5,59.6c-0.9-1.5-1.7-3.1-2.5-4.6C242.2,1270.2,266.7,1202.8,266.7,1202.8z M249,1595.4
	c0,0,12.8,14.6,35.6,29.6s71.6,29.9,71.6,22.1c0-4.5-2.5-21.2-7.4-37.2c0.8,0.8,1.5,1.6,2.3,2.4c21.1,20.1,65.6,19.7,74.9,1.2
	c9.3-18.5-0.2-42.6-22.4-41.4c-22.2,1.2-26,19-26,19c-8.2-4.6-12.3-16.4-9.1-28.1c4.9-17.4,21.7-38.4,59.7-34.8
	c44.9,4.3,76,56.8,43.7,116.1c-32.4,59.3-102.9,65.9-157,40.2C260.8,1658.8,249,1595.4,249,1595.4z M296.2,1691.7
	c0.6,0.5,38.3,31.1,76.6,36c57,7.3,109.4-15.9,138.9-69c0.7-1.3,1.4-2.6,2-3.9c12,5.2,21,21.2,11.1,43.2
	c-13.1,29.2-69.6,59.5-142,46.7C311.6,1732,296.7,1692.9,296.2,1691.7z M661.3,1826c0,0-92.8-6.4-181.1,11.5
	c-88.4,17.9-110.9,64.8-112.9,94.9c0,0-21.6-15.1-44-21.9c0,0,10.6,28.3-6.4,43.2c-16.9,14.8-50.3,0.7-50.3-30.6
	C266.6,1891.8,306.7,1762,661.3,1826z M374.8,1990.1c0,0-16-3.8-37.7-3.3c0,0,20.9-1.3,24.6-28.5
	C361.7,1958.3,362.7,1979.4,374.8,1990.1z M428.6,2358.9c0,0-11.3-20.4-34.4-18.2c-23.1,2.2-28.1,20.9-25,32.7
	c3,11.8,17.8,19,31.5,12.3c0,0-11.1,38.2-55.6,38.8c-44.4,0.6-87.4-27.4-107.2-80.3c-19.8-53-11.3-108.7,36.3-143.4
	c47.6-34.7,138.6-45.7,229.3-2.8c89.9,42.6,134.6,130.8,135.3,132.2c-0.6-0.6-38.6-36.5-89.4-48.2c-9.3-10.3-18-19.5-25.8-26.6
	c-48.5-44.4-136.9-90.9-228.4-49c-88.6,40.5-61.9,149.5-4.1,173.2c51.2,21,72.9-7.6,73.7-23.3c1-18.5-13.5-31-30.8-27.2
	c-17,3.7-18.9,21-18.3,21.5c-1-0.5-34.4-17.4-33.6-52.3c0.8-35.5,28.5-74.4,98.4-75.5c35.8-0.6,74.5,7.3,131.3,56.1
	C463.6,2282.6,429.4,2317.9,428.6,2358.9z M542.7,2388.2c0,0-5.9-7.4-13.3-13.9c-7.4-6.5-22.9-14.8-22.9-14.8s-1.8,30.2-19.4,35.4
	c-17.6,5.2-50.6-20.7-37.2-57c12.9-35.1,44.6-46.4,76.5-45.9c29.5,27.6,63.8,65.8,104.5,118.4C609,2397.1,571.7,2379.1,542.7,2388.2
	z M565.9,2301.1c40.1,16.9,85.4,56.6,86.8,112.4C637.8,2392.9,600.7,2342.4,565.9,2301.1z M613.1,2239.6
	c-39.1-52.2-114.8-106.9-206.6-124.1c-91.8-17.2-141.1,12.2-141.1,12.2s-1.9-50.3,56.9-62.1c53.6-10.7,146.7,3.3,256.7,62.1
	c33.3,17.8,135.7,73.7,231.7,131.5c-0.9,5.2-1.7,10.5-2.3,15.9c-54.4-40.2-96.9-27.1-119.7-3.9c-17.4,17.8-25.1,42.5-28.5,58.7
	C647.3,2297.9,632.5,2265.5,613.1,2239.6z M819.4,2469.6c-52.6,15.2-97.8-4.1-122.3-51.5c-3.1-6.1-6.2-12.6-9.2-19.6c0,0,0,0,0,0
	c-6.9-38,8.5-66.9,31-74.7c22.5-7.8,53.7-4.1,66.2,19.9c12.6,24,3.9,39.4,3.9,39.4c-9.2-15.4-41.3-20.5-42.4,4.4
	c-1,24.9,24.7,36.7,43.1,33.2c16.4-3.2,31.5-22.4,31.4-47c-4.2-10.9-7.8-22.6-10.3-34.9c-12.2-19.8-35.4-36.3-70.1-37.4
	c-49.3-1.6-69.8,34.8-69.8,34.8c3.5-40.3,31.3-80,73.5-78.8c26,0.7,49.3,14.4,63.4,24.8c-0.4,5-0.7,10.1-0.8,15.4
	c-0.3,14.4,1.1,28.2,3.8,41.3c5.1,8.3,8.3,17.2,9.6,25.7c0.5,3.1,0.7,6.2,0.7,9.2c13.2,34.1,32.4,60.1,43,73
	C851.2,2456.4,836.2,2464.7,819.4,2469.6z M895.4,2448.2c0,0,1.7-2.3,4.3-6c4.7-6.6,12.6-17.6,19.6-27.9c0,0-1.3,26.6,5.9,49.3
	c1.2,3.9,2.7,7.8,4.5,11.3L895.4,2448.2z M921.4,2377.7c-6.2,11.5-18.1,30.8-35.5,49.1c-29.5-36.5-49.6-87.6-43.7-148.5
	c18.7,11.6,36.9,23,53.8,34.1c16.9,11,32.8,21.5,48.2,31.4C933.6,2356.5,926.2,2368.8,921.4,2377.7z M1129.5,2546.1
	c-0.1,0-0.1,0-0.2,0c-12.8-1.6-23-8.8-46.6-39.4c-23.6-30.6-50.9-30-72.6-36.5c-21.7-6.4-25.7-18.7-30.8-17.5
	c-5,1.2-13.4,12.2-13.4,12.2c-12.8-45.8-7.9-79.9,4.5-104.4c69.4,43.7,130.1,75.7,215.6,98.8c-3.7,3.2-7.2,6.6-10.5,9.9
	C1145.9,2499,1133.7,2531.9,1129.5,2546.1z M1330.3,2586.1c-48.7-30.5-83,7.8-80.1,31.8c2.9,24,31.8,26.9,35.7,11.7
	c3.9-15.1-13.8-19.3-13.8-19.3c13.3-25.3,43.6-20.7,54.7-5.6c11,15.1,13.1,67.3-54.3,71.6c-67.5,4.3-101.7-33.8-114.6-72.8
	c-3.8-11.5-5.8-23.8-5.7-36.6c21.3,0.8,69.7-1.3,120.1-30.8c23.3-13.6,42.9-30.8,58.3-50c8.6,0.9,17.1,1.7,25.6,2.3
	C1311.4,2526.1,1330.3,2586.1,1330.3,2586.1z M1625.7,2536c-68.3,44.7-132,47.8-132,47.8c7.2,26.1,36.9,34.8,36.9,34.8
	c-112.2,57.2-171-6.8-171.4-46.3c-0.4-39.5,37.6-61.2,37.6-61.2c1.2,11.5,7.5,29.3,27,36.2c19.5,6.9,37.4-5.5,37.4-31
	c0-7.4-2.1-16.8-6.7-25.5c41-1,80.7-4.6,118.6-10.1c83.9-12.3,135.3-31.7,155.9-40.6C1712.4,2459.4,1668.7,2507.9,1625.7,2536z
	 M1798.4,2690.1c-64.7-52.4-53.5-154.2-53.5-154.2c19.2,4.9,24.1,22.6,24.1,22.6c7.9-17.5,21-17.2,29.2-28.4
	c8.2-11.2,17.8-17.1,17.8-17.1c-52.5,115.6,10.7,161.8,48.1,172c37.3,10.1,66.4-6.9,66.4-6.9l20.2,20.6
	C1939.1,2706.2,1863.2,2742.5,1798.4,2690.1z M1980.6,2610c-6.4,17.5-6.7,31.2-6.7,31.2H1959c-0.1-0.9-0.2-1.9-0.3-2.8
	c-1.9-16.6-8.5-34-23.5-43c-8.1-4.9-21.2-8-31.4-4.9c16.9-29,48.6-26.7,61.5-20.6C1978.8,2576.1,1987.1,2592.5,1980.6,2610z
	 M1985.7,2486.3c-36.1,28.1-11.3,74.1-11.3,74.1c-10.2-9.4-31.9-24.3-54.6-21.2c-22.6,3.1-35.5,17.1-30.2,29.9
	c3.8,9.1,6.4,19.4,7.6,24.6c-2.2,1.7-4,3.8-5.4,6.5c-5.3,10.9,2.4,26.5,15.2,26.5c9.9,0,15.4-9.4,15.4-9.4
	c19.4,14.2,9.9,50.8-34.1,52.5c-44,1.7-71.7-36.4-64.4-86.4c7.3-50,42.1-90.5,71-116.3c28.9-25.8,78.1-72,78.1-72
	c1.7,15.9,15.4,20.4,15.4,20.4s-29.2,9-29.2,33.1C1959.3,2472.7,1985.7,2486.3,1985.7,2486.3z M2000,2553c-13.8-28.2,0-45.5,0-45.5
	S2013.8,2524.8,2000,2553z M2000,2092.4c0,0-8.5-19.6-8.3-38c0.2-15.9,8.3-29.8,8.3-29.8s8.1,13.9,8.3,29.8
	C2008.5,2072.8,2000,2092.4,2000,2092.4z M2000,1952.2c-17.5-47.4-84.2-109.2-138.3-157c-42.2-37.3-193.8-146.5-289.4-256.6
	c12.5,1.8,26.5,0,35.8-5.3c20.7-11.8,36.5-43.8,13.3-70.3c-28.8-32.9-75-27-75-27s38.1-33.2,45.4-84.5
	c7.3-51.3-30.9-91.3-79.7-100.4c-30.7-5.7-48.8,8.9-58,20.4c-10.1-70.1-6.3-141.9,19.4-205.4c24.8-3.9,81.9-16.8,116.3-55.6
	c33-37.2,33.5-73.5,31.4-90c4.6-1.7,9.1-3.2,13.7-4.6c11.5,13.1,29.9,33.2,45.3,47.1c3,2.7,6.6,5.7,10.8,8.9h0
	c6.9,8.8,16.9,22.7,19.6,33.1c4.2,16.5-5.4,34-5.4,34s13.4-0.5,29.3,6.6c0,0,10.3-6.4,9.6-20.3c-0.5-9-4.9-17.2-13.6-26.7
	c28.9,17.5,62.8,34.2,87.6,39.1c21,4.2,44.9,5.4,64,0.5c5,30.6,38.1,50.6,68.3,45.6c32.2-5.3,47.8-40,49.5-69.4
	c1.7,29.4,17.4,64.1,49.5,69.4c28,4.6,58.4-12.1,66.7-39c0,0,0,0,0,0c3-10.5,0.8-20.1,0.8-20.1s-9.1,5.9-16.8,6.3
	c-10.4,1.6-23,0.3-31-11.8c-15.6-23.7,7.1-63.5,67.4-92.8c38.7-18.8,130.5-36.6,217.8-13.5c7.1,1.8,10.6,3,10.6,3
	c4.6,1.4,9.2,2.9,13.7,4.6c-2.1,16.6-1.6,52.8,31.4,90c34.4,38.8,91.5,51.7,116.3,55.6c17.8,43.9,25.1,91.7,24.6,140.2
	c-20.8,3.7-71.5,17.1-110.8,61.6c-50.7,57.4-36.8,121.2-19.5,146.3c14.9,21.6,35,35.2,55.4,36.1c-46.6,8.5-57,11.7-107.5,35.3
	c-13.6,6.3-25.9,14.4-36.8,23.5c-8.9,2.2-19.2,4.3-30.7,2c-17.1-3.4-16.1-13.7-18.4-13.3c-2.2,0.3-8,30.9,27,33.4
	c-21.5,25.6-33.3,54.9-32.2,78.2c1.4,30.5,27.1,36.4,44.1,34.7c-77.1,68.6-155,126.3-183.4,151.3
	C2084.2,1843,2017.5,1904.8,2000,1952.2z M2011.5,2415.6c0,0,13.7-4.5,15.4-20.4c0,0,49.1,46.2,78.1,72s63.7,66.3,71,116.3
	c7.3,50-20.3,88.1-64.4,86.4c-44-1.7-53.5-38.3-34.1-52.5c0,0,5.5,9.4,15.4,9.4c12.8,0,20.6-15.6,15.2-26.5
	c-1.3-2.7-3.2-4.9-5.4-6.5c1.2-5.2,3.8-15.5,7.6-24.6c5.3-12.9-7.6-26.8-30.2-29.9c-22.7-3.1-44.3,11.8-54.6,21.2
	c0,0,24.9-46-11.3-74.1c0,0,26.4-13.5,26.4-37.6C2040.7,2424.5,2011.5,2415.6,2011.5,2415.6z M2041,2641.2h-14.8
	c0,0-0.3-13.7-6.7-31.2c-6.5-17.5,1.8-33.9,15.2-40.2c12.9-6.1,44.6-8.4,61.5,20.6c-10.1-3-23.3,0-31.4,4.9c-15,9-21.5,26.4-23.5,43
	C2041.1,2639.3,2041,2640.2,2041,2641.2z M2201.6,2690.1c-64.7,52.4-140.6,16.1-152.2,8.6l20.2-20.6c0,0,29,17,66.4,6.9
	c37.3-10.2,100.6-56.4,48.1-172c0,0,9.6,5.9,17.8,17.1c8.2,11.2,21.3,10.9,29.2,28.4c0,0,4.9-17.6,24.1-22.6
	C2255.1,2536,2266.3,2637.8,2201.6,2690.1z M2469.4,2618.6c0,0,29.7-8.8,36.9-34.8c0,0-63.7-3.1-132-47.8
	c-43-28.1-86.6-76.6-103.3-96c20.6,9,72,28.3,155.9,40.6c37.9,5.6,77.6,9.1,118.6,10.1c-4.6,8.7-6.7,18.1-6.7,25.5
	c0,25.6,17.8,37.9,37.4,31c19.5-6.9,25.9-24.7,27-36.2c0,0,38,21.7,37.6,61.2C2640.4,2611.8,2581.7,2675.9,2469.4,2618.6z
	 M2842.2,2603.4c-12.8,39-47.1,77.1-114.6,72.8c-67.4-4.3-65.4-56.5-54.3-71.6c11.1-15.1,41.4-19.7,54.7,5.6c0,0-17.7,4.2-13.8,19.3
	c3.9,15.1,32.9,12.3,35.7-11.7c2.9-24-31.4-62.3-80.1-31.8c0,0,19-60-25.9-97.8c8.5-0.6,17-1.4,25.6-2.3c15.5,19.3,35,36.5,58.3,50
	c50.4,29.5,98.8,31.6,120.1,30.8C2847.9,2579.6,2845.9,2591.9,2842.2,2603.4z M3034,2464.9c0,0-8.4-11-13.4-12.2
	c-5-1.2-9.1,11.1-30.8,17.5c-21.7,6.4-49,5.9-72.6,36.5c-23.6,30.6-33.8,37.8-46.6,39.4c-0.1,0-0.1,0-0.2,0
	c-4.2-14.2-16.4-47.1-46-76.8c-3.4-3.4-6.9-6.7-10.5-9.9c85.5-23.2,146.2-55.2,215.6-98.8C3042,2385,3046.9,2419.1,3034,2464.9z
	 M3070.2,2475c1.8-3.5,3.3-7.4,4.5-11.3c7.1-22.7,5.9-49.3,5.9-49.3c7,10.3,14.8,21.3,19.6,27.9c2.7,3.7,4.3,6,4.3,6L3070.2,2475z
	 M3078.6,2377.7c-4.8-8.9-12.2-21.2-22.9-33.9c15.4-9.9,31.3-20.4,48.2-31.4c17-11.1,35.1-22.6,53.8-34.1c6,61-14.1,112-43.7,148.5
	C3096.7,2408.5,3084.8,2389.2,3078.6,2377.7z M3259.4,2301.1c-34.7,1.1-57.9,17.6-70.1,37.4c-2.5,12.3-6.1,24.1-10.3,34.9
	c-0.1,24.7,15,43.9,31.4,47c18.4,3.6,44.2-8.3,43.1-33.2c-1.1-24.9-33.2-19.8-42.4-4.4c0,0-8.7-15.4,3.9-39.4s43.7-27.7,66.2-19.9
	c22.5,7.8,37.9,36.7,31,74.7c0,0,0,0,0,0c-3.1,7-6.1,13.5-9.2,19.6c-24.5,47.5-69.7,66.8-122.3,51.5c-16.9-4.9-31.8-13.2-44.7-23.1
	c10.6-12.9,29.8-38.9,43-73c0-3,0.2-6.1,0.7-9.2c1.3-8.5,4.5-17.4,9.6-25.7c2.7-13.1,4.1-27,3.8-41.3c-0.1-5.2-0.4-10.4-0.8-15.4
	c14.1-10.4,37.5-24.1,63.4-24.8c42.2-1.1,70,38.5,73.5,78.8C3329.2,2335.9,3308.7,2299.6,3259.4,2301.1z M3347.3,2413.5
	c1.4-55.7,46.7-95.5,86.8-112.4C3399.3,2342.4,3362.2,2392.9,3347.3,2413.5z M3512.9,2395c-17.5-5.2-19.4-35.4-19.4-35.4
	s-15.4,8.3-22.9,14.8c-7.4,6.5-13.3,13.9-13.3,13.9c-29-9.2-66.3,8.8-88.3,22.1c40.7-52.7,75-90.8,104.5-118.4
	c31.9-0.4,63.6,10.9,76.5,45.9C3563.5,2374.3,3530.4,2400.1,3512.9,2395z M3762.2,2344.1c-19.8,53-62.8,80.9-107.2,80.3
	c-44.5-0.6-55.6-38.8-55.6-38.8c13.7,6.7,28.5-0.5,31.5-12.3c3-11.8-1.9-30.5-25-32.7c-23.1-2.2-34.4,18.2-34.4,18.2
	c-0.8-41-35-76.3-83.2-80.2c56.8-48.9,95.6-56.8,131.3-56.1c69.9,1.2,97.5,40,98.4,75.5c0.8,35-32.6,51.8-33.6,52.3
	c0.6-0.5-1.2-17.8-18.3-21.5c-17.3-3.8-31.8,8.8-30.8,27.2c0.8,15.7,22.5,44.2,73.7,23.3c57.9-23.7,84.5-132.7-4.1-173.2
	c-91.5-41.8-179.9,4.6-228.4,49c-7.8,7.1-16.6,16.3-25.8,26.6c-50.9,11.7-88.8,47.6-89.4,48.2c0.7-1.4,45.3-89.6,135.3-132.2
	c90.7-42.9,181.7-31.9,229.3,2.8C3773.5,2235.4,3782,2291.1,3762.2,2344.1z M3734.6,2127.6c0,0-49.3-29.4-141.1-12.2
	c-91.8,17.2-167.5,72-206.6,124.1c-19.4,25.9-34.2,58.3-47.2,90.2c-3.3-16.2-11.1-40.9-28.5-58.7c-22.7-23.2-65.2-36.3-119.7,3.9
	c-0.6-5.5-1.4-10.7-2.3-15.9c96-57.8,198.4-113.7,231.7-131.5c110-58.7,203.1-72.8,256.7-62.1
	C3736.5,2077.4,3734.6,2127.6,3734.6,2127.6z M3625.2,1990.1c12.1-10.7,13.1-31.7,13.1-31.7c3.7,27.1,24.6,28.5,24.6,28.5
	C3641.2,1986.2,3625.2,1990.1,3625.2,1990.1z M3733.4,1923.1c0,31.3-33.4,45.4-50.3,30.6c-16.9-14.8-6.4-43.2-6.4-43.2
	c-22.4,6.8-44,21.9-44,21.9c-2-30.1-24.5-77-112.9-94.9c-88.4-17.9-181.1-11.5-181.1-11.5C3693.3,1762,3733.4,1891.8,3733.4,1923.1z
	 M3617.1,1744.6c-72.4,12.9-128.9-17.4-142-46.7c-9.9-22-0.9-38.1,11.1-43.2c0.6,1.3,1.3,2.6,2,3.9c29.5,53.1,81.8,76.3,138.9,69
	c38.4-4.9,76-35.5,76.6-36C3703.3,1692.9,3688.4,1732,3617.1,1744.6z M3685.1,1684.5c-54.2,25.6-124.7,19.1-157-40.2
	c-32.3-59.3-1.2-111.8,43.7-116.1c38.1-3.7,54.9,17.4,59.7,34.8c3.3,11.7-0.8,23.5-9.1,28.1c0,0-3.8-17.8-26-19
	c-22.2-1.2-31.7,22.9-22.4,41.4c9.3,18.5,53.8,18.9,74.9-1.2c0.8-0.8,1.6-1.5,2.3-2.4c-4.9,16-7.4,32.8-7.4,37.2
	c0,7.8,48.8-7.1,71.6-22.1c22.8-15,35.6-29.6,35.6-29.6S3739.2,1658.8,3685.1,1684.5z"/>
</svg>
